<?xml version="1.0" encoding="UTF-8" standalone="no"?>
<svg
   width="16"
   height="16"
   fill="currentColor"
   class="bi bi-bug"
   viewBox="0 0 16 16"
   version="1.1"
   id="svg4"
   sodipodi:docname="bug.svg"
   inkscape:version="1.1.2 (b8e25be833, 2022-02-05)"
   xmlns:inkscape="http://www.inkscape.org/namespaces/inkscape"
   xmlns:sodipodi="http://sodipodi.sourceforge.net/DTD/sodipodi-0.dtd"
   xmlns="http://www.w3.org/2000/svg"
   xmlns:svg="http://www.w3.org/2000/svg">
  <defs
     id="defs8" />
  <sodipodi:namedview
     id="namedview6"
     pagecolor="#ffffff"
     bordercolor="#666666"
     borderopacity="1.0"
     inkscape:pageshadow="2"
     inkscape:pageopacity="0.0"
     inkscape:pagecheckerboard="0"
     showgrid="false"
     inkscape:zoom="44.9375"
     inkscape:cx="7.9888734"
     inkscape:cy="7.9888734"
     inkscape:window-width="3840"
     inkscape:window-height="2480"
     inkscape:window-x="-11"
     inkscape:window-y="-11"
     inkscape:window-maximized="1"
     inkscape:current-layer="svg4" />
  <path
     d="m 5.0560774,2.0080709 a 0.40383026,0.40383026 0 0 1 0.5031725,0.268951 L 5.7942791,3.0491453 A 4.0213417,4.0213417 0 0 1 8,2.3941326 c 0.8133141,0 1.5717074,0.2406829 2.205721,0.6550127 l 0.234221,-0.7721234 a 0.40383026,0.40383026 0 1 1 0.772932,0.2342215 l -0.331141,1.091957 a 4.0261877,4.0261877 0 0 1 1.15657,2.8292348 h 0.40383 A 0.40383026,0.40383026 0 0 0 12.845963,6.028605 V 5.6247747 a 0.4038305,0.4038305 0 0 1 0.807661,0 V 6.028605 a 1.2114908,1.2114908 0 0 1 -1.211491,1.2114907 h -0.40383 v 0.8076605 h 1.21149 a 0.40383026,0.40383026 0 0 1 0,0.8076605 h -1.21149 v 0.8076606 h 0.40383 a 1.2114908,1.2114908 0 0 1 1.211491,1.2114907 v 0.40383 a 0.4038305,0.4038305 0 1 1 -0.807661,0 v -0.40383 a 0.40383026,0.40383026 0 0 0 -0.40383,-0.40383 h -0.40383 a 4.0383028,4.0383028 0 0 1 -8.0766056,0 H 3.5578672 a 0.40383026,0.40383026 0 0 0 -0.4038303,0.40383 v 0.40383 a 0.40383026,0.40383026 0 1 1 -0.8076605,0 v -0.40383 A 1.2114908,1.2114908 0 0 1 3.5578672,9.6630773 H 3.9616974 V 8.8554167 H 2.7502067 a 0.40383026,0.40383026 0 0 1 0,-0.8076605 H 3.9616974 V 7.2400957 H 3.5578672 A 1.2114908,1.2114908 0 0 1 2.3463764,6.028605 V 5.6247747 a 0.40383026,0.40383026 0 0 1 0.8076605,0 V 6.028605 a 0.40383026,0.40383026 0 0 0 0.4038303,0.4038302 h 0.4038302 c 0,-1.1016489 0.4417903,-2.100725 1.1565699,-2.8292348 L 4.7871265,2.5112434 A 0.40383026,0.40383026 0 0 1 5.0560774,2.0080709 Z M 4.769358,7.2400957 V 10.470738 A 3.230642,3.230642 0 0 0 7.5961697,13.67715 V 7.2400957 Z m 3.6344723,0 V 13.67715 A 3.230642,3.230642 0 0 0 11.230642,10.470738 V 7.2400957 Z M 11.230642,6.4324352 A 3.2217578,3.2217578 0 0 0 10.153223,4.0239916 3.2169118,3.2169118 0 0 0 8,3.2017932 3.2169118,3.2169118 0 0 0 5.8459694,4.0239916 3.2217578,3.2217578 0 0 0 4.769358,6.4324352 Z"
     id="path2"
     style="fill:#a45773;fill-opacity:0.129412;stroke-width:0.807661" />
</svg>
