<?xml version="1.0" encoding="UTF-8" standalone="no"?>
<svg
   width="16"
   height="16"
   fill="currentColor"
   class="bi bi-1-square"
   viewBox="0 0 16 16"
   version="1.1"
   id="svg6"
   sodipodi:docname="drop&amp;Drag.svg"
   inkscape:version="1.3.2 (091e20e, 2023-11-25, custom)"
   xmlns:inkscape="http://www.inkscape.org/namespaces/inkscape"
   xmlns:sodipodi="http://sodipodi.sourceforge.net/DTD/sodipodi-0.dtd"
   xmlns="http://www.w3.org/2000/svg"
   xmlns:svg="http://www.w3.org/2000/svg"
   xmlns:rdf="http://www.w3.org/1999/02/22-rdf-syntax-ns#"
   xmlns:cc="http://creativecommons.org/ns#"
   xmlns:dc="http://purl.org/dc/elements/1.1/">
  <metadata
     id="metadata12">
    <rdf:RDF>
      <cc:Work
         rdf:about="">
        <dc:format>image/svg+xml</dc:format>
        <dc:type
           rdf:resource="http://purl.org/dc/dcmitype/StillImage" />
      </cc:Work>
    </rdf:RDF>
  </metadata>
  <defs
     id="defs10">
    <linearGradient
       id="linearGradient13008"
       inkscape:swatch="solid">
      <stop
         style="stop-color:#000000;stop-opacity:1;"
         offset="0"
         id="stop13006" />
    </linearGradient>
  </defs>
  <sodipodi:namedview
     pagecolor="#ffffff"
     bordercolor="#666666"
     borderopacity="1"
     objecttolerance="10"
     gridtolerance="10"
     guidetolerance="10"
     inkscape:pageopacity="0"
     inkscape:pageshadow="2"
     inkscape:window-width="1407"
     inkscape:window-height="1220"
     id="namedview8"
     showgrid="false"
     inkscape:zoom="32"
     inkscape:cx="7.046875"
     inkscape:cy="8.9375"
     inkscape:window-x="1546"
     inkscape:window-y="0"
     inkscape:window-maximized="0"
     inkscape:current-layer="svg6"
     inkscape:document-rotation="0"
     inkscape:pagecheckerboard="0"
     inkscape:showpageshadow="2"
     inkscape:deskcolor="#d1d1d1" />
  <path
     d="M 6.4636356,16.754728 5.7050286,16.48577 a 0.20121862,0.20121862 0 0 0 -0.256892,0.122412 l -0.403437,1.137911 a 0.20121862,0.20121862 0 0 0 0.122412,0.256891 l 0.758607,0.268958 a 0.20121862,0.20121862 0 0 0 0.256892,-0.122412 l 0.403437,-1.137911 a 0.20121862,0.20121862 0 0 0 -0.122412,-0.256891 m -0.617014,0.234912 a 0.07545714,0.07545714 0 1 1 -0.142239,-0.05043 0.07545714,0.07545714 0 0 1 0.142239,0.05043 m -0.133486,0.117275 0.09633,0.128729 0.238172,-0.113571 a 0.02515233,0.02515233 0 0 1 0.02899,0.0053 l 0.146284,0.155823 -0.05883,0.165945 a 0.05030465,0.05030465 0 0 1 -0.06423,0.0306 l -0.568954,-0.201718 a 0.05030465,0.05030465 0 0 1 -0.0306,-0.06422 l 0.01681,-0.04742 c 0,0 0.188864,-0.06904 0.196033,-0.05945 m -0.215866,0.265926 0.568955,0.201718 a 0.05030664,0.05030664 0 0 1 -0.03362,0.09483 l -0.568956,-0.201718 a 0.05030664,0.05030664 0 0 1 0.03362,-0.09483 m -0.06724,0.189652 0.284478,0.100859 a 0.05030664,0.05030664 0 0 1 -0.03362,0.09483 l -0.284481,-0.100878 a 0.05030831,0.05030831 0 0 1 0.03363,-0.09483"
     id="path2"
     style="fill:#000000;fill-opacity:1;stroke-width:0.10061" />
  <path
     d="m 3.1489305,16.581611 h 0.5247088 a 0.09913253,0.09913253 0 0 1 0.070085,0.02905 l 0.3674841,0.367484 a 0.09913253,0.09913253 0 0 1 0.029047,0.07009 v 0.553754 L 3.869624,17.33135 A 0.09913253,0.09913253 0 0 0 3.7189427,17.34394 L 3.5316818,17.606047 3.3563159,17.500769 a 0.09913253,0.09913253 0 0 0 -0.1211402,0.01487 l -0.2845098,0.28451 v -1.020272 a 0.19826506,0.19826506 0 0 1 0.1982646,-0.198265 m 0.5452288,0.148698 v 0.198266 a 0.09913253,0.09913253 0 0 0 0.099133,0.09913 h 0.1982651 z m -0.1485002,0.396528 a 0.1486988,0.1486988 0 1 0 -0.2973973,0 0.1486988,0.1486988 0 0 0 0.2973973,0"
     id="path2-0"
     style="fill:#000000;stroke-width:0.0991327" />
  <path
     d="m 3.7996369,17.401434 0.3406192,0.340818 v 0.227212 A 0.19826506,0.19826506 0 0 1 3.9419907,18.167728 H 3.1489305 A 0.19826506,0.19826506 0 0 1 2.9506659,17.969464 v -0.02905 l 0.3546962,-0.354598 0.2537793,0.152268 0.2404955,-0.336555 z"
     id="path4"
     style="fill:#000000;stroke-width:0.0991327" />
  <path
     d="m 7.6085964,17.886367 c 0.015179,-0.0089 0.031767,-0.01757 0.049765,-0.0258 a 0.85413133,0.85413133 0 0 1 -0.048789,0.0657 c -0.030357,0.03654 -0.053993,0.05594 -0.068846,0.06202 a 0.02883967,0.02883967 0 0 1 -0.0038,0.0013 0.03057439,0.03057439 0 0 1 -0.00282,-0.0048 c -0.00607,-0.01193 -0.00585,-0.02342 0.00434,-0.03903 0.011493,-0.01789 0.034586,-0.03838 0.070148,-0.05941 M 7.874765,17.70778 c -0.012902,0.0027 -0.025695,0.0054 -0.038598,0.0085 a 2.2928624,2.2928624 0 0 0 0.05421,-0.113841 1.3059168,1.3059168 0 0 0 0.055294,0.09302 c -0.023527,0.0035 -0.047271,0.0076 -0.070906,0.01236 m 0.2737608,0.101814 a 0.42077733,0.42077733 0 0 1 -0.047162,-0.04445 c 0.024719,5.55e-4 0.047054,0.0024 0.066353,0.0059 0.034369,0.0062 0.050523,0.01594 0.056161,0.02266 a 0.01029988,0.01029988 0 0 1 0.00282,0.0069 0.04727104,0.04727104 0 0 1 -0.0065,0.02168 0.03328488,0.03328488 0 0 1 -0.010191,0.01344 0.01160092,0.01160092 0 0 1 -0.00748,0.0016 c -0.00976,-3.25e-4 -0.027973,-0.0071 -0.053994,-0.02775 M 7.907293,17.295046 c -0.00434,0.02645 -0.011709,0.05681 -0.021684,0.08988 a 0.52692034,0.52692034 0 0 1 -0.00965,-0.03751 c -0.00824,-0.03827 -0.00943,-0.06831 -0.00499,-0.08912 0.00412,-0.01919 0.011927,-0.02689 0.02125,-0.03068 a 0.05605305,0.05605305 0 0 1 0.015721,-0.0043 c 0.00141,0.0032 0.00304,0.01 0.00347,0.02147 5.439e-4,0.01323 -7.61e-4,0.03003 -0.00412,0.05042 z"
     id="path2-6"
     style="fill:#000000;stroke-width:0.10842" />
  <path
     fill-rule="evenodd"
     d="m 7.4434731,16.53936 h 0.5738661 a 0.10841982,0.10841982 0 0 1 0.076653,0.03177 l 0.4019123,0.401912 a 0.10841982,0.10841982 0 0 1 0.031767,0.07665 v 1.007545 a 0.21683964,0.21683964 0 0 1 -0.2168398,0.21684 H 7.4434731 A 0.21683964,0.21683964 0 0 1 7.2266334,18.057237 V 16.756199 A 0.21683964,0.21683964 0 0 1 7.4434731,16.53936 m 0.596309,0.162629 v 0.21684 a 0.10841982,0.10841982 0 0 0 0.1084199,0.10842 h 0.2168395 z m -0.5784198,1.319253 c 0.00976,0.01952 0.024937,0.03719 0.047488,0.04543 0.022443,0.0081 0.044669,0.0043 0.062883,-0.0033 0.034477,-0.01409 0.068847,-0.04727 0.1003966,-0.08522 0.036104,-0.04348 0.074051,-0.100505 0.1106967,-0.163714 a 1.2631994,1.2631994 0 0 1 0.2165144,-0.04402 c 0.032526,0.04153 0.066136,0.0773 0.098662,0.102999 0.030357,0.02385 0.065377,0.04369 0.1012641,0.04521 a 0.09280737,0.09280737 0 0 0 0.055294,-0.01496 c 0.016805,-0.01095 0.029273,-0.02678 0.03838,-0.0451 0.00976,-0.01962 0.015721,-0.04012 0.014962,-0.06104 a 0.09150633,0.09150633 0 0 0 -0.021684,-0.05612 c -0.024503,-0.02927 -0.064618,-0.04337 -0.104083,-0.05042 a 0.62449817,0.62449817 0 0 0 -0.14474,-0.0054 1.1876307,1.1876307 0 0 1 -0.1062515,-0.182796 c 0.027105,-0.07156 0.047379,-0.139211 0.056379,-0.194505 0.0039,-0.02363 0.00596,-0.04619 0.0052,-0.06657 a 0.13422374,0.13422374 0 0 0 -0.013769,-0.05833 0.07589388,0.07589388 0 0 0 -0.051716,-0.03957 c -0.021901,-0.0047 -0.044452,0 -0.065161,0.0084 -0.040874,0.01626 -0.06245,0.05096 -0.070581,0.08923 -0.00791,0.03686 -0.00434,0.0798 0.00499,0.123165 0.00954,0.04402 0.025804,0.09194 0.046621,0.140403 a 2.1355452,2.1355452 0 0 1 -0.1151425,0.241384 0.8307127,0.8307127 0 0 0 -0.1606782,0.06993 c -0.040115,0.02385 -0.075785,0.05204 -0.097253,0.08533 -0.022768,0.03534 -0.029816,0.07741 -0.00867,0.119587 z"
     id="path4-5"
     style="fill:#000000;stroke-width:0.10842" />
  <path
     d="m 9.8888201,16.381169 -0.5210251,0.06206 a 0.1982652,0.1982652 0 0 0 -0.1734223,0.220324 l 0.140707,1.18124 a 0.1982652,0.1982652 0 0 0 0.2203244,0.173422 l 0.7874929,-0.0938 A 0.1982652,0.1982652 0 0 0 10.51632,17.70409 l -0.108966,-0.914772 a 0.0991326,0.0991326 0 0 0 -0.03714,-0.06616 l -0.4083679,-0.32144 a 0.0991326,0.0991326 0 0 0 -0.07303,-0.02056 m 0.06142,0.342101 -0.02345,-0.196873 0.3304869,0.260132 -0.196874,0.02345 a 0.0991326,0.0991326 0 0 1 -0.1101589,-0.08671 m 0.1844729,0.291502 0.02052,0.172265 -0.1910109,0.07266 0.04233,0.355357 c 0.0058,0.04872 -0.01928,0.09044 -0.052,0.118307 -0.03298,0.02819 -0.07817,0.04696 -0.127287,0.05281 -0.04922,0.0059 -0.09745,-0.0018 -0.13613,-0.02143 -0.03825,-0.0194 -0.07253,-0.05405 -0.07834,-0.102782 -0.0058,-0.04873 0.01928,-0.09045 0.052,-0.118307 0.03298,-0.02819 0.07817,-0.04695 0.127289,-0.0528 0.03504,-0.0042 0.0697,-0.0016 0.100732,0.0076 l -0.05049,-0.423868 a 0.0991326,0.0991326 0 0 1 0.06314,-0.104361 l 0.0955,-0.03634 a 0.0991326,0.0991326 0 0 1 0.13373,0.08091"
     id="path2-7"
     style="fill:#000000;stroke-width:0.0991325" />
  <path
     d="m 12.044323,16.53936 h -0.755911 a 0.18897773,0.18897773 0 0 0 -0.188977,0.188977 v 1.133866 a 0.18897773,0.18897773 0 0 0 0.188977,0.188978 h 0.755911 a 0.18897773,0.18897773 0 0 0 0.188978,-0.188978 V 16.728337 A 0.18897773,0.18897773 0 0 0 12.044323,16.53936 m -0.566933,0.555878 a 0.04724443,0.04724443 0 0 1 0.07153,-0.04054 l 0.333357,0.200032 a 0.04724443,0.04724443 0 0 1 0,0.08107 l -0.333357,0.200033 a 0.04724443,0.04724443 0 0 1 -0.07153,-0.04063 v -0.399877 z"
     id="path2-5"
     style="fill:#000000;stroke-width:0.0944889" />
  <path
     d="m 13.439238,17.321021 -0.01657,-0.09702 0.103439,-0.01767 0.01657,0.09702 a 0.10493706,0.10493706 0 0 0 0.0074,0.0246 l 0.06962,0.158226 -0.08524,0.08057 -0.107152,-0.0477 0.01314,-0.172364 a 0.10493706,0.10493706 0 0 0 -0.0011,-0.02567 z"
     id="path2-3"
     style="fill:#000000;fill-opacity:1;stroke-width:0.104937" />
  <path
     d="m 13.664804,16.277743 -0.5475,0.09353 a 0.20987413,0.20987413 0 0 0 -0.171536,0.242219 l 0.212049,1.241262 a 0.20987413,0.20987413 0 0 0 0.242219,0.171536 l 0.827509,-0.141366 a 0.20987413,0.20987413 0 0 0 0.171535,-0.242219 l -0.164214,-0.961254 a 0.10493706,0.10493706 0 0 0 -0.0428,-0.06795 L 13.74311,16.295555 a 0.10493706,0.10493706 0 0 0 -0.07831,-0.01782 m 0.08326,0.358377 -0.03534,-0.206876 0.363328,0.257303 -0.206877,0.03534 a 0.10493706,0.10493706 0 0 1 -0.121109,-0.08577 m -0.42259,0.01896 -0.01767,-0.103438 -0.103438,0.01767 -0.01767,-0.103438 0.155158,-0.02651 0.01767,0.103438 0.103439,-0.01767 0.01767,0.103438 -0.103438,0.01767 0.01767,0.103438 0.103438,-0.01767 0.01767,0.103439 -0.103439,0.01767 0.01767,0.103438 0.103439,-0.01767 0.01767,0.103439 -0.155157,0.02651 -0.01767,-0.103434 -0.103438,0.01767 -0.01767,-0.103438 0.103439,-0.01767 -0.01767,-0.103439 -0.103439,0.01767 -0.01767,-0.103438 z m 0.07952,0.465473 0.103439,-0.01767 a 0.10493706,0.10493706 0 0 1 0.121109,0.08577 l 0.01657,0.09702 0.06964,0.158329 a 0.10493706,0.10493706 0 0 1 -0.02405,0.118443 l -0.08524,0.08056 a 0.10493706,0.10493706 0 0 1 -0.114713,0.0196 l -0.107152,-0.0477 a 0.10493706,0.10493706 0 0 1 -0.0619,-0.103761 l 0.01312,-0.172467 -0.01657,-0.09702 a 0.10493706,0.10493706 0 0 1 0.08577,-0.121111 z"
     id="path4-7"
     style="fill:#000000;fill-opacity:1;stroke-width:0.104937" />
  <path
     d="m 0.37589968,10.822159 q 0.0562679,-0.0029 0.10671504,-0.0029 0.30753334,0 0.47730726,0.154252 0.17074402,0.153281 0.17074402,0.459845 0,0.304623 -0.18044538,0.487978 -0.1794753,0.183356 -0.48118782,0.183356 -0.028134,0 -0.10865531,-0.0058 l -0.16783365,-0.0097 q 0.0164923,-0.351189 0.0164923,-0.665514 0,-0.293951 -0.0164923,-0.598574 h 0.0543276 q 0.042686,0 0.0756707,-9.7e-4 z m 0.67133462,0.6335 q 0,-0.300743 -0.14843093,-0.432681 -0.14843092,-0.131939 -0.39969633,-0.131939 -0.14163996,0 -0.21731063,0.0078 0,0.169774 9.7014e-4,0.256116 l 9.7014e-4,0.268728 -9.7014e-4,0.27843 q 0,0.190146 0.005821,0.323055 0.0397756,0.0058 0.0785811,0.0087 0.0397756,0.0019 0.0979838,0.0019 0.2774591,0 0.42977056,-0.152312 0.15231148,-0.153282 0.15231148,-0.42783 z m 0.6781256,-0.63544 q 0.056268,0 0.091193,-9.7e-4 0.2017885,0 0.3026827,0.07664 0.1018643,0.07664 0.1018643,0.227982 0,0.120297 -0.064029,0.207609 -0.064029,0.08731 -0.177535,0.135819 v 0.0058 q 0.113506,0.03104 0.1959676,0.176565 0.083432,0.145521 0.1911169,0.439472 h -0.087312 q -0.066939,-0.177535 -0.1377594,-0.319175 -0.06985,-0.14261 -0.1202969,-0.184326 -0.049477,-0.04269 -0.092163,-0.05724 -0.042686,-0.01552 -0.1823857,-0.01552 -0.1367893,0 -0.1872364,0.0019 0,0.401637 0.012612,0.574321 H 1.4663334 q 0.0097,-0.197908 0.014552,-0.347309 0.00582,-0.149401 0.00582,-0.318205 0,-0.321115 -0.016492,-0.598574 h 0.113506 z m 0.045596,0.620888 q 0.1639531,0 0.2638772,-0.08149 0.1008942,-0.08246 0.1008942,-0.21634 0,-0.135819 -0.086342,-0.194028 -0.086342,-0.05821 -0.2871604,-0.05821 -0.1193269,0 -0.2066392,0.0058 0.00388,0.06888 0.00388,0.186266 0,0.100894 -9.702e-4,0.156192 l -9.701e-4,0.199848 q 0.020373,0.0019 0.07179,0.0019 z m 0.985659,0.187236 q -0.089253,0.207609 -0.1299983,0.318205 -0.040746,0.110596 -0.040746,0.14261 H 2.4820667 q 0,-0.03104 0.269698,-0.616037 0.2706681,-0.584992 0.2706681,-0.648051 h 0.1096255 q 0,0.05724 0.2658174,0.635439 0.2667876,0.577232 0.2667876,0.628649 h -0.099924 q 0,-0.06306 -0.1746246,-0.460815 z m 0.3201452,-0.723722 h -0.00873 q 0,0.02813 -0.2881306,0.659693 h 0.5801418 q -0.1435802,-0.335667 -0.2134301,-0.488949 -0.06985,-0.154252 -0.06985,-0.170744 z m 0.71111,0.572381 q 0,-0.294922 0.1969377,-0.482158 0.1979079,-0.187237 0.4986503,-0.187237 0.1028345,0 0.2017884,0.03007 l -0.017462,0.08925 q -0.1639531,-0.03977 -0.2425342,-0.03977 -0.2502953,0 -0.4026067,0.160072 -0.1513414,0.159103 -0.1513414,0.399697 0,0.299772 0.1552219,0.450143 0.1552219,0.150371 0.4501434,0.150371 0.057238,0 0.097984,-0.0049 0.040746,-0.0048 0.098954,-0.01746 -0.00776,-0.07858 -0.00776,-0.254176 0,-0.05045 -0.00485,-0.128058 l -0.00291,-0.08052 h 0.098954 q -0.00388,0.04075 -0.00873,0.195967 -0.00388,0.154252 -0.00388,0.253206 0,0.04657 9.701e-4,0.06015 -0.099924,0.04366 -0.2803695,0.04366 -0.3211153,0 -0.4996204,-0.167834 -0.177535,-0.168804 -0.177535,-0.470516 z m 2.7454872,0.612156 q -0.034925,-0.09798 -0.1891767,-0.28425 -0.092163,0.14455 -0.2182808,0.228952 -0.1261177,0.08343 -0.2920111,0.08343 -0.1464907,0 -0.2658175,-0.103805 -0.1193268,-0.103804 -0.1193268,-0.261937 0,-0.09798 0.029104,-0.167833 0.029104,-0.06985 0.086342,-0.127088 0.058208,-0.05724 0.205669,-0.134849 -0.1212671,-0.09216 -0.1571622,-0.148431 -0.034925,-0.05724 -0.034925,-0.119327 0,-0.111566 0.076641,-0.179475 0.077611,-0.06888 0.1949975,-0.06888 0.128058,0 0.2085794,0.06403 0.081491,0.06306 0.081491,0.162013 0,0.0941 -0.063059,0.159102 -0.062089,0.065 -0.1833559,0.127088 0.045597,0.0359 0.2027586,0.156192 0.1571622,0.119327 0.2386536,0.203729 0.063059,-0.135819 0.06985,-0.327906 h 0.1008942 q -0.028134,0.217311 -0.1173865,0.383204 0.2105196,0.236713 0.2444744,0.35604 z m -0.687827,-0.806184 q 0.1047748,-0.06112 0.1571622,-0.114476 0.053357,-0.05336 0.053357,-0.122237 0,-0.08343 -0.057238,-0.125148 -0.056268,-0.04171 -0.1455205,-0.04171 -0.078581,0 -0.1377594,0.0388 -0.058208,0.03881 -0.058208,0.122237 0,0.04948 0.027164,0.0941 0.028134,0.04463 0.1377595,0.129998 z M 6.2966443,11.75155 Q 6.2297049,11.67976 6.1404523,11.60797 6.0521699,11.53521 5.9095598,11.426555 l -0.091193,-0.06888 q -0.1367893,0.07567 -0.1882065,0.128058 -0.051417,0.05239 -0.076641,0.114476 -0.025224,0.06209 -0.025224,0.147461 0,0.129028 0.096044,0.21246 0.097014,0.08343 0.2192509,0.08343 0.156192,0 0.2648473,-0.07761 0.1086553,-0.07858 0.1882065,-0.214401 z m 1.20588,-0.929391 q 0.056268,-0.0029 0.106715,-0.0029 0.3075333,0 0.4773073,0.154252 0.170744,0.153281 0.170744,0.459845 0,0.304623 -0.1804454,0.487978 -0.1794753,0.183356 -0.4811878,0.183356 -0.028134,0 -0.1086553,-0.0058 l -0.1678337,-0.0097 q 0.016492,-0.351189 0.016492,-0.665514 0,-0.293951 -0.016492,-0.598574 h 0.054328 q 0.042686,0 0.075671,-9.7e-4 z m 0.6713346,0.6335 q 0,-0.300743 -0.1484309,-0.432681 -0.148431,-0.131939 -0.3996964,-0.131939 -0.1416399,0 -0.2173106,0.0078 0,0.169774 9.701e-4,0.256116 l 9.702e-4,0.268728 -9.702e-4,0.27843 q 0,0.190146 0.00582,0.323055 0.039776,0.0058 0.078581,0.0087 0.039776,0.0019 0.097984,0.0019 0.2774591,0 0.4297706,-0.152312 0.1523115,-0.153282 0.1523115,-0.42783 z m 0.678125,-0.63544 q 0.056268,0 0.091193,-9.7e-4 0.2017884,0 0.3026827,0.07664 0.1018643,0.07664 0.1018643,0.227982 0,0.120297 -0.064029,0.207609 -0.064029,0.08731 -0.177535,0.135819 v 0.0058 q 0.113506,0.03104 0.1959676,0.176565 0.083432,0.145521 0.1911169,0.439472 h -0.087312 q -0.066939,-0.177535 -0.1377594,-0.319175 -0.06985,-0.14261 -0.1202969,-0.184326 -0.049477,-0.04269 -0.092163,-0.05724 -0.042686,-0.01552 -0.1823857,-0.01552 -0.1367893,0 -0.1872364,0.0019 0,0.401637 0.012612,0.574321 h -0.105745 q 0.0097,-0.197908 0.014552,-0.347309 0.00582,-0.149401 0.00582,-0.318205 0,-0.321115 -0.016492,-0.598574 h 0.113506 z m 0.045596,0.620888 q 0.1639531,0 0.2638772,-0.08149 0.1008942,-0.08246 0.1008942,-0.21634 0,-0.135819 -0.086342,-0.194028 -0.086342,-0.05821 -0.2871605,-0.05821 -0.1193268,0 -0.2066391,0.0058 0.00388,0.06888 0.00388,0.186266 0,0.100894 -9.702e-4,0.156192 l -9.701e-4,0.199848 q 0.020373,0.0019 0.07179,0.0019 z m 1.3746847,0.687827 q -0.218281,0 -0.3890251,-0.168804 -0.170744,-0.168804 -0.170744,-0.485068 0,-0.302683 0.1746246,-0.487009 0.1746245,-0.184326 0.4093975,-0.184326 0.228952,0 0.394846,0.173654 0.166863,0.172685 0.166863,0.463726 0,0.318205 -0.174624,0.503501 -0.173655,0.184326 -0.411338,0.184326 z m -0.0039,-1.259238 q -0.125147,0 -0.238653,0.08246 -0.1135064,0.08149 -0.1736549,0.219251 -0.060148,0.136789 -0.060148,0.303653 0,0.28425 0.1503712,0.436561 0.1513412,0.151341 0.3560402,0.151341 0.182386,0 0.326936,-0.166863 0.145521,-0.166864 0.145521,-0.436562 0,-0.28813 -0.147461,-0.438501 -0.147461,-0.151342 -0.358951,-0.151342 z m 1.20394,-0.04948 q 0.03007,0 0.06597,-9.7e-4 0.200819,0 0.322086,0.0747 0.122237,0.07373 0.122237,0.231862 0,0.201789 -0.155222,0.313354 -0.155222,0.111566 -0.396786,0.111566 -0.08634,0 -0.125147,-0.0019 h -0.02425 q 0,0.169774 0.0019,0.296862 0.0019,0.126118 0.01067,0.243504 h -0.105745 q 0.02037,-0.374473 0.02037,-0.665514 0,-0.306563 -0.01649,-0.598574 h 0.117386 q 0.05142,0 0.111566,-0.0029 z m 0.42686,0.324996 q 0,-0.135819 -0.09022,-0.194997 -0.09022,-0.05918 -0.28716,-0.05918 -0.159102,0 -0.244474,0.0058 0.0039,0.08731 0.0039,0.582082 0.02813,0.0019 0.128058,0.0019 0.234773,0 0.361861,-0.08828 0.128058,-0.08828 0.128058,-0.247385 z m 1.507593,-0.240594 q -0.194028,-0.0078 -0.606336,-0.0078 0.0039,0.207609 0.0039,0.520963 0.279399,0 0.449173,-0.0078 v 0.08343 q -0.08925,-0.0049 -0.181416,-0.0058 -0.09216,-9.7e-4 -0.267757,-9.7e-4 0,0.302683 0.0019,0.42589 0.0019,0.122237 0.0087,0.176565 h -0.101864 l 0.0068,-0.202759 q 0.01164,-0.292981 0.01164,-0.462755 0,-0.132908 -0.0039,-0.247385 -0.0039,-0.114476 -0.01067,-0.267757 l -0.0039,-0.08343 h 0.699468 z m 0.273578,1.184537 q 0.01649,-0.431711 0.01649,-0.665514 0,-0.270668 -0.01649,-0.598574 h 0.101864 q -0.01067,0.230892 -0.01067,0.596634 0,0.324996 0.01067,0.667454 z m 0.621858,-0.389025 9.7e-4,0.196938 q 0,0.0844 -9.7e-4,0.122237 0.35701,0 0.64029,-0.0097 l -0.0039,0.07955 h -0.721781 q 0.0078,-0.291041 0.0078,-0.665514 0,-0.175594 -9.7e-4,-0.324996 -9.71e-4,-0.150371 -0.0068,-0.273578 h 0.09992 q -0.01649,0.218281 -0.01649,0.598574 0,0.107685 0.0019,0.276489 z m 0.890585,0.389025 0.0068,-0.202759 q 0.01164,-0.292981 0.01164,-0.462755 0,-0.176565 -0.0087,-0.381263 -0.0087,-0.204699 -0.0097,-0.217311 h 0.687827 l -0.0039,0.07955 q -0.2144,-0.0078 -0.596634,-0.0078 0.0039,0.21537 0.0039,0.492829 0.304623,0 0.477308,-0.01164 v 0.08731 q -0.230893,-0.0097 -0.477308,-0.0097 v 0.2144 q 0,0.208579 0.0049,0.349249 0.35798,0 0.652902,-0.01552 l -0.0039,0.08537 z"
     id="text872"
     style="font-size:1.98684px;line-height:8.05;font-family:Candara;-inkscape-font-specification:Candara;fill:#2d2f46;fill-opacity:0.86666667;stroke-width:0.085;stroke-dasharray:none;stroke:#2d2f46;stroke-opacity:0.86666667"
     aria-label="DRAG &amp; DROP FILE" />
  <path
     d="M 8.1061012,1.0442343 A 3.9507072,3.9507072 0 0 0 5.5384993,2.0029774 C 4.9912581,2.4744935 4.5947586,3.0888867 4.492597,3.7054201 3.2952401,3.9697782 2.3907927,5.0128034 2.3907927,6.2723117 c 0,1.463119 1.2202189,2.6304731 2.7011976,2.6304731 h 6.3625677 c 1.296662,0 2.366849,-1.0216116 2.366849,-2.3054156 0,-1.1687779 -0.887298,-2.1210926 -2.024645,-2.2818391 C 11.62316,2.4723476 10.027874,1.0442343 8.1061012,1.0442343 M 9.7878309,4.7206082 A 0.35765861,0.35765861 0 0 1 9.2820261,5.2264103 L 8.4633079,4.4069768 v 2.709769 a 0.35720691,0.35720691 0 0 1 -0.7144135,0 V 4.4069768 L 6.9301765,5.2264103 A 0.35765861,0.35765861 0 1 1 6.4243717,4.7206082 l 1.4288271,-1.42883 a 0.35720678,0.35720678 0 0 1 0.5058052,0 z"
     id="path2-2"
     style="fill:#2d2f46;fill-opacity:0.933333;stroke-width:0.714412" />
  <path
     style="font-size:1.10971px;line-height:1.25;font-family:Candara;-inkscape-font-specification:Candara;fill:#2d2f46;fill-opacity:0.866667;stroke:#2d2f46;stroke-width:0.03;stroke-dasharray:none;stroke-opacity:0.866667"
     d="m 5.2510896,12.835251 q -0.1262511,0.103493 -0.1880221,0.236788 -0.061771,0.133296 -0.061771,0.298018 0,0.164723 0.061771,0.298018 0.061771,0.133295 0.1880221,0.236789 l -0.018965,0.01246 Q 5.0966622,13.832256 5.0262216,13.693 q -0.070441,-0.138714 -0.070441,-0.322943 0,-0.184229 0.070441,-0.322943 0.070441,-0.139255 0.2059033,-0.224326 z m 0.1928988,0.359247 h 0.00108 q 0.07315,-0.07965 0.1555111,-0.07965 0.071524,0 0.1154142,0.02059 0.04389,0.02005 0.057978,0.05906 h 0.00433 q 0.040639,-0.03901 0.082361,-0.05906 0.041723,-0.02059 0.080736,-0.02059 0.091031,0 0.1365464,0.04064 0.045515,0.04064 0.045515,0.139256 l -0.00108,0.05364 -0.00108,0.02926 5.419e-4,0.08995 q 0.00163,0.07478 0.00163,0.179895 h -0.05256 q 0.012463,-0.147925 0.012463,-0.360873 0,-0.06936 -0.032511,-0.09807 -0.032511,-0.02926 -0.1137887,-0.02926 -0.037388,0 -0.076943,0.02059 -0.039013,0.02059 -0.075317,0.06014 -0.00217,0.04335 -0.00217,0.13763 0,0.08995 0.00325,0.269842 h -0.053101 q 0.00975,-0.138714 0.00975,-0.338657 0,-0.09537 -0.036846,-0.122458 -0.036846,-0.02709 -0.1094538,-0.02709 -0.075859,0 -0.1555111,0.07315 -0.00108,0.03305 -0.00108,0.121917 0,0.09753 0.00163,0.235705 l 5.418e-4,0.05744 h -0.04985 q 0.00975,-0.199943 0.00975,-0.266591 0,-0.10837 -0.021674,-0.248167 l 0.053101,-0.01138 z m 1.1687718,0.397718 q -0.072066,0.06881 -0.1820618,0.06881 -0.082361,0 -0.1267931,-0.0363 -0.044432,-0.03685 -0.044432,-0.107286 0,-0.08832 0.075859,-0.136005 0.076401,-0.04768 0.2774275,-0.04931 0.00217,-0.01951 0.00217,-0.03847 0,-0.07423 -0.042264,-0.102951 -0.042264,-0.02926 -0.1154142,-0.02926 -0.086696,0 -0.1744758,0.02222 l 0.00704,-0.0466 q 0.082903,-0.02222 0.1695992,-0.02222 0.09374,0 0.1462997,0.03901 0.052559,0.03847 0.052559,0.128418 0,0.02926 -0.00325,0.08561 -0.00271,0.05581 -0.00271,0.111079 0,0.07965 0.012463,0.168516 l -0.043348,0.0022 q -0.00542,-0.0336 -0.00542,-0.05744 z m 0.00217,-0.222159 q -0.1430486,0 -0.224868,0.03305 -0.081819,0.03251 -0.081819,0.119207 0,0.09645 0.1278768,0.09645 0.05852,0 0.1034934,-0.01734 0.045516,-0.01734 0.075317,-0.05256 z M 6.950875,13.242181 q 0.0065,0.0098 0.028176,0.04281 0.022216,0.03251 0.040097,0.05635 h 0.00325 q 0.075317,-0.0894 0.1116212,-0.145216 0.036846,-0.05581 0.036846,-0.0634 h 0.060145 q 0,0.007 -0.081819,0.108912 -0.081819,0.101868 -0.1056608,0.127335 v 0.0022 q 0.055269,0.06827 0.1056608,0.136546 0.050934,0.06773 0.063938,0.08399 l 0.022216,0.02818 q 0.00271,0.0038 0.011379,0.01463 0.00867,0.01084 0.00867,0.013 h -0.062313 q 0,-0.0092 -0.056352,-0.08941 -0.056353,-0.08073 -0.1175816,-0.160387 h -0.00108 q -0.039555,0.0531 -0.070982,0.09916 -0.030886,0.04552 -0.063397,0.09266 -0.032511,0.0466 -0.032511,0.05798 h -0.059604 q 0,-0.007 0.017339,-0.03197 0.017881,-0.02547 0.060145,-0.07911 l 0.050392,-0.06556 q 0.053643,-0.07098 0.078568,-0.09862 v -0.0011 q -0.027093,-0.0363 -0.108912,-0.143049 l -0.026551,-0.03414 q -0.0065,-0.0076 -0.025467,-0.03251 -0.018965,-0.02492 -0.018965,-0.02872 h 0.062313 q 0,0.006 0.011921,0.02438 0.011921,0.01842 0.040097,0.05744 z m 0.4356479,0.353286 q 0,-0.02709 0.015172,-0.04281 0.015714,-0.01626 0.041181,-0.01626 0.025467,0 0.03522,0.01355 0.010295,0.01355 0.010295,0.0363 0,0.02438 -0.016256,0.04226 -0.015714,0.01788 -0.040097,0.01788 -0.023841,0 -0.034678,-0.01463 -0.010837,-0.01517 -0.010837,-0.0363 z M 7.976598,13.112678 q -0.010295,0.08561 -0.016255,0.144674 -0.00596,0.05852 -0.00596,0.09374 0.1874803,0.0027 0.2676741,0.05039 0.080736,0.04768 0.080736,0.154969 0,0.07857 -0.053101,0.144674 -0.053101,0.06665 -0.1446741,0.104577 -0.091031,0.03793 -0.1928988,0.04064 l -0.013004,-0.03901 q 0.1549693,-0.0081 0.2546698,-0.07152 0.1002423,-0.06285 0.1002423,-0.162555 0,-0.07478 -0.037388,-0.112163 -0.036846,-0.03793 -0.1072864,-0.05093 -0.070441,-0.01355 -0.2026521,-0.01355 0.027634,-0.232996 0.027634,-0.320776 h 0.3121059 l -0.00271,0.04877 Q 8.1185629,13.112678 7.976598,13.112678 Z m 0.4882074,0.253044 q 0,-0.112704 0.065022,-0.200484 0.065564,-0.08832 0.1723085,-0.08832 0.1045771,0 0.1652644,0.08182 0.061229,0.08182 0.061229,0.191273 0,0.125167 -0.063938,0.213489 -0.063397,0.08832 -0.1761015,0.08832 -0.1034934,0 -0.1636389,-0.08399 -0.060145,-0.08399 -0.060145,-0.202111 z m 0.046599,-0.0081 q 0,0.111079 0.053643,0.184771 0.053643,0.07315 0.1349208,0.07315 0.088322,0 0.1349208,-0.07369 0.047141,-0.07423 0.047141,-0.182604 0,-0.0932 -0.050934,-0.169057 -0.050392,-0.0764 -0.1392556,-0.0764 -0.086696,0 -0.1338371,0.0764 -0.046599,0.07586 -0.046599,0.167432 z m 1.2646794,0.28989 Q 9.772291,13.4703 9.7582029,13.273608 9.7441148,13.076374 9.7414055,13.0547 q -0.00271,-0.02167 -0.00379,-0.04443 h -0.00163 l -0.1148723,0.273092 q -0.1002423,0.239498 -0.1181234,0.294225 -0.017339,0.05473 -0.017339,0.0699 h -0.039013 q 0,-0.03089 -0.057978,-0.188564 -0.057978,-0.157679 -0.1121631,-0.309397 -0.054185,-0.151718 -0.061771,-0.164722 h -0.00325 q -0.00271,0.139797 -0.02926,0.37496 -0.026551,0.235163 -0.026551,0.287723 h -0.04985 q 0.00867,-0.04389 0.039555,-0.303978 0.031427,-0.260631 0.031427,-0.402054 h 0.074775 q 0,0.0087 0.028176,0.09103 0.028718,0.08236 0.078568,0.221617 l 0.039555,0.110538 q 0.042806,0.118123 0.056352,0.160388 0.013546,0.04226 0.013546,0.05689 h 0.00325 q 0,-0.0401 0.1192071,-0.311022 Q 9.709433,12.999428 9.709433,12.94145 h 0.073692 q 0,0.0699 0.016255,0.299102 0.016256,0.228661 0.0233,0.311022 l 0.00813,0.09591 z m 0.2898902,0 0.0038,-0.113247 q 0.0065,-0.163639 0.0065,-0.258463 0,-0.05581 -0.0016,-0.118123 -0.0016,-0.06286 -0.0043,-0.134921 l -0.0033,-0.08128 h 0.04551 q 0.02547,0 0.06231,-0.0016 l 0.03576,-0.0011 q 0.02059,0 0.04497,-5.42e-4 0.107286,0 0.160929,0.03901 0.05364,0.03847 0.05364,0.115414 0,0.05906 -0.03089,0.103493 -0.03034,0.04389 -0.07911,0.06502 v 0.0033 q 0.07152,0.0081 0.114872,0.05148 0.04389,0.04281 0.04389,0.11108 0,0.107828 -0.08453,0.165806 -0.08453,0.05798 -0.2227,0.05798 -0.02709,0 -0.145758,-0.0033 z m 0.04768,-0.665935 q 0.0022,0.0098 0.0027,0.07315 5.42e-4,0.0634 5.42e-4,0.19019 0.02222,0.0011 0.09103,0.0011 l 0.0233,5.41e-4 q 0.07098,0 0.130586,-0.02763 0.06015,-0.02818 0.06394,-0.113789 0,-0.06394 -0.04227,-0.09537 -0.04226,-0.03143 -0.132211,-0.03143 -0.05419,0 -0.09428,0.0016 -0.03956,0.0016 -0.04335,0.0016 z m 0.0033,0.306146 -5.42e-4,0.160388 q 0,0.101868 0.0033,0.157136 0.02818,0.0065 0.08507,0.0065 0.123542,0 0.196691,-0.04281 0.07315,-0.04281 0.07315,-0.127876 0,-0.07532 -0.06015,-0.116498 -0.0596,-0.04118 -0.192899,-0.04118 -0.04226,0 -0.06285,0.0011 -0.02059,5.42e-4 -0.04172,0.0033 z m 0.513132,0.617168 q 0.126251,-0.103494 0.188022,-0.236789 0.06177,-0.133295 0.06177,-0.298018 0,-0.164722 -0.06177,-0.298018 -0.06177,-0.133295 -0.188022,-0.236788 l 0.01897,-0.01246 q 0.135463,0.08507 0.205903,0.224326 0.07044,0.138714 0.07044,0.322943 0,0.184229 -0.07044,0.322943 -0.07044,0.139256 -0.205903,0.224326 z"
     id="text56612"
     aria-label=" (max. 50MB)" />
</svg>
