<?xml version="1.0" encoding="UTF-8" standalone="no"?>
<svg
   width="16"
   height="16"
   fill="currentColor"
   class="bi bi-emoji-dizzy"
   viewBox="0 0 16 16"
   version="1.1"
   id="svg6"
   sodipodi:docname="emoji-dizzy.svg"
   inkscape:version="1.1.2 (b8e25be833, 2022-02-05)"
   xmlns:inkscape="http://www.inkscape.org/namespaces/inkscape"
   xmlns:sodipodi="http://sodipodi.sourceforge.net/DTD/sodipodi-0.dtd"
   xmlns="http://www.w3.org/2000/svg"
   xmlns:svg="http://www.w3.org/2000/svg">
  <defs
     id="defs10" />
  <sodipodi:namedview
     id="namedview8"
     pagecolor="#ffffff"
     bordercolor="#666666"
     borderopacity="1.0"
     inkscape:pageshadow="2"
     inkscape:pageopacity="0.0"
     inkscape:pagecheckerboard="0"
     showgrid="false"
     inkscape:zoom="44.9375"
     inkscape:cx="7.9888734"
     inkscape:cy="7.9888734"
     inkscape:window-width="3840"
     inkscape:window-height="2480"
     inkscape:window-x="-11"
     inkscape:window-y="-11"
     inkscape:window-maximized="1"
     inkscape:current-layer="svg6" />
  <path
     d="M 8,13.267038 A 5.2670378,5.2670378 0 1 1 8,2.7329624 5.2670378,5.2670378 0 0 1 8,13.267038 Z m 0,0.752433 A 6.0194715,6.0194715 0 1 0 8,1.9805285 6.0194715,6.0194715 0 0 0 8,14.019471 Z"
     id="path2"
     style="fill:#a45773;fill-opacity:0.0890688;stroke-width:0.752434" />
  <path
     d="m 8.8622893,5.8525535 c 0.1469984,-0.1473705 0.3857248,-0.1473705 0.5327232,0 L 9.8810848,6.3393783 10.367157,5.8525535 c 0.355149,-0.3547539 0.887872,0.1779694 0.532723,0.5327233 l -0.486824,0.4860723 0.486824,0.4860723 c 0.354648,0.3551482 -0.178075,0.8878714 -0.532723,0.5327232 L 9.8810848,7.4033199 9.3950125,7.8901446 C 9.0398639,8.2455403 8.5071407,7.7128171 8.8622893,7.3574214 L 9.349114,6.8713491 8.8622893,6.3852768 c -0.1473705,-0.1469984 -0.1473705,-0.3857249 0,-0.5327233 z m -3.7621697,0 c 0.1469984,-0.1473705 0.3857248,-0.1473705 0.5327232,0 L 6.1189152,6.3393783 6.6049875,5.8525535 C 6.9601362,5.4974049 7.4928594,6.0301282 7.1377107,6.3852768 L 6.650886,6.8713491 7.1377107,7.3574214 C 7.4931064,7.71257 6.9603832,8.2452932 6.6049875,7.8901446 L 6.1189152,7.4033199 5.6328428,7.8901446 C 5.2776942,8.2455403 4.744971,7.7128171 5.1001196,7.3574214 L 5.5869444,6.8713491 5.1001196,6.3852768 c -0.1473705,-0.1469984 -0.1473705,-0.3857249 0,-0.5327233 z m 3.0695605,4.4047485 c 0,2.00649 -0.00556,0.760314 -0.00556,0 0,-2.0064896 0.00556,-2.0064896 0.00556,0 z"
     id="path4"
     style="fill:#a45773;fill-opacity:0.0890688;stroke-width:0.752434"
     sodipodi:nodetypes="ccccccccccccccccccccccccccccsss" />
</svg>
