<?xml version="1.0" encoding="UTF-8" standalone="no"?>
<svg
   xmlns:dc="http://purl.org/dc/elements/1.1/"
   xmlns:cc="http://creativecommons.org/ns#"
   xmlns:rdf="http://www.w3.org/1999/02/22-rdf-syntax-ns#"
   xmlns:svg="http://www.w3.org/2000/svg"
   xmlns="http://www.w3.org/2000/svg"
   xmlns:xlink="http://www.w3.org/1999/xlink"
   xmlns:sodipodi="http://sodipodi.sourceforge.net/DTD/sodipodi-0.dtd"
   xmlns:inkscape="http://www.inkscape.org/namespaces/inkscape"
   width="16"
   height="16"
   fill="currentColor"
   class="bi bi-file-earmark-fill"
   viewBox="0 0 16 16"
   version="1.1"
   id="svg4"
   sodipodi:docname="empty-file-lock.svg"
   inkscape:version="1.0.2-2 (e86c870879, 2021-01-15)">
  <metadata
     id="metadata11">
    <rdf:RDF>
      <cc:Work
         rdf:about="">
        <dc:format>image/svg+xml</dc:format>
        <dc:type
           rdf:resource="http://purl.org/dc/dcmitype/StillImage" />
      </cc:Work>
    </rdf:RDF>
  </metadata>
  <defs
     id="defs8">
    <linearGradient
       inkscape:collect="always"
       id="linearGradient895">
      <stop
         style="stop-color:#5151b5;stop-opacity:1"
         offset="0"
         id="stop891" />
      <stop
         style="stop-color:#9999d0;stop-opacity:1"
         offset="1"
         id="stop893" />
    </linearGradient>
    <linearGradient
       inkscape:collect="always"
       xlink:href="#linearGradient895"
       id="linearGradient897"
       x1="3.967221"
       y1="2.3767443"
       x2="22.319889"
       y2="27.816412"
       gradientUnits="userSpaceOnUse" />
  </defs>
  <sodipodi:namedview
     id="namedview6"
     pagecolor="#ffffff"
     bordercolor="#666666"
     borderopacity="1.0"
     inkscape:pageshadow="2"
     inkscape:pageopacity="0.0"
     inkscape:pagecheckerboard="0"
     showgrid="false"
     inkscape:zoom="14.941543"
     inkscape:cx="19.661465"
     inkscape:cy="11.803346"
     inkscape:window-width="1920"
     inkscape:window-height="1013"
     inkscape:window-x="-9"
     inkscape:window-y="-9"
     inkscape:window-maximized="1"
     inkscape:current-layer="svg4"
     inkscape:document-rotation="0" />
  <path
     d="M 4.2076959,0.03708855 H 9.2258623 A 0.94807603,0.94807603 0 0 1 9.8961521,0.31487483 L 13.41067,3.8293927 a 0.94807603,0.94807603 0 0 1 0.277786,0.6702897 v 8.8104706 a 1.8961521,1.8961521 0 0 1 -1.896152,1.896152 H 4.2076959 A 1.8961521,1.8961521 0 0 1 2.3115438,13.310153 V 1.9332406 A 1.8961521,1.8961521 0 0 1 4.2076959,0.03708855 Z M 9.422114,1.4592026 v 1.8961521 a 0.94807603,0.94807603 0 0 0 0.948076,0.948076 h 1.896152 z"
     id="path2"
     style="fill:url(#linearGradient897);fill-opacity:1;stroke-width:0.948076" />
  <path
     d="m 11.488364,12.092466 v 0.702992 c 0.3528,0.108462 0.653337,0.390043 0.653337,0.799688 v 1.568009 c 0,0.533123 -0.510256,0.849339 -0.980008,0.849339 H 9.2016812 c -0.4697507,0 -0.9800064,-0.316216 -0.9800064,-0.849339 v -1.568009 c 0,-0.409645 0.300534,-0.691233 0.6533354,-0.799688 v -0.702992 a 1.3066772,1.3066772 0 1 1 2.6133538,0 z m -1.9600148,0 v 0.653339 h 1.3066768 v -0.653339 a 0.65333877,0.65333877 0 0 0 -1.3066768,0 z"
     id="path2-4"
     style="fill:#000000;fill-opacity:1;stroke-width:0.653339" />
</svg>
