<?xml version="1.0" encoding="UTF-8" standalone="no"?>
<svg
   width="16"
   height="16"
   fill="currentColor"
   class="bi bi-file-earmark-zip-fill"
   viewBox="0 0 16 16"
   version="1.1"
   id="svg6"
   sodipodi:docname="file-earmark-zip-fill.svg"
   inkscape:version="1.1.2 (b8e25be833, 2022-02-05)"
   xmlns:inkscape="http://www.inkscape.org/namespaces/inkscape"
   xmlns:sodipodi="http://sodipodi.sourceforge.net/DTD/sodipodi-0.dtd"
   xmlns="http://www.w3.org/2000/svg"
   xmlns:svg="http://www.w3.org/2000/svg">
  <defs
     id="defs10" />
  <sodipodi:namedview
     id="namedview8"
     pagecolor="#ffffff"
     bordercolor="#666666"
     borderopacity="1.0"
     inkscape:pageshadow="2"
     inkscape:pageopacity="0.0"
     inkscape:pagecheckerboard="0"
     showgrid="false"
     inkscape:zoom="44.9375"
     inkscape:cx="7.9888734"
     inkscape:cy="8"
     inkscape:window-width="1920"
     inkscape:window-height="1228"
     inkscape:window-x="-6"
     inkscape:window-y="-6"
     inkscape:window-maximized="1"
     inkscape:current-layer="svg6" />
  <path
     d="M 5.5358921,9.4926637 V 8.6219974 h 0.9282158 v 0.8706663 a 0.92821571,0.92821571 0 0 0 0.027846,0.2255565 L 6.8632406,11.201509 6,11.777003 5.1367594,11.201509 5.5080457,9.7182202 a 0.92821571,0.92821571 0 0 0 0.027846,-0.2255565 z"
     id="path2"
     style="fill:#2d2f46;fill-opacity:1;stroke-width:0.928216" />
  <path
     d="M9.293 0H4a2 2 0 0 0-2 2v12a2 2 0 0 0 2 2h8a2 2 0 0 0 2-2V4.707A1 1 0 0 0 13.707 4L10 .293A1 1 0 0 0 9.293 0zM9.5 3.5v-2l3 3h-2a1 1 0 0 1-1-1zm-4-.5V2h-1V1H6v1h1v1H6v1h1v1H6v1h1v1H5.5V6h-1V5h1V4h-1V3h1zm0 4.5h1a1 1 0 0 1 1 1v.938l.4 1.599a1 1 0 0 1-.416 1.074l-.93.62a1 1 0 0 1-1.109 0l-.93-.62a1 1 0 0 1-.415-1.074l.4-1.599V8.5a1 1 0 0 1 1-1z"
     id="path4"
     style="fill:#2d2f46;fill-opacity:1" />
</svg>
