<?xml version="1.0" encoding="UTF-8" standalone="no"?>
<svg
   xmlns:dc="http://purl.org/dc/elements/1.1/"
   xmlns:cc="http://creativecommons.org/ns#"
   xmlns:rdf="http://www.w3.org/1999/02/22-rdf-syntax-ns#"
   xmlns:svg="http://www.w3.org/2000/svg"
   xmlns="http://www.w3.org/2000/svg"
   xmlns:xlink="http://www.w3.org/1999/xlink"
   xmlns:sodipodi="http://sodipodi.sourceforge.net/DTD/sodipodi-0.dtd"
   xmlns:inkscape="http://www.inkscape.org/namespaces/inkscape"
   width="16"
   height="16"
   fill="currentColor"
   class="bi bi-file-earmark-image"
   viewBox="0 0 16 16"
   version="1.1"
   id="svg6"
   sodipodi:docname="image-file-unlock.svg"
   inkscape:version="1.0.2-2 (e86c870879, 2021-01-15)">
  <metadata
     id="metadata13">
    <rdf:RDF>
      <cc:Work
         rdf:about="">
        <dc:format>image/svg+xml</dc:format>
        <dc:type
           rdf:resource="http://purl.org/dc/dcmitype/StillImage" />
      </cc:Work>
    </rdf:RDF>
  </metadata>
  <defs
     id="defs10">
    <linearGradient
       inkscape:collect="always"
       id="linearGradient841">
      <stop
         style="stop-color:#2da9e8;stop-opacity:1"
         offset="0"
         id="stop837" />
      <stop
         style="stop-color:#1b87be;stop-opacity:1"
         offset="1"
         id="stop839" />
    </linearGradient>
    <linearGradient
       inkscape:collect="always"
       xlink:href="#linearGradient1833-3"
       id="linearGradient1835"
       x1="0.36195564"
       y1="-1.7839961"
       x2="17.290682"
       y2="19.426983"
       gradientUnits="userSpaceOnUse"
       gradientTransform="matrix(0.94042616,0,0,0.94042616,0.53097461,0.05438373)" />
    <linearGradient
       inkscape:collect="always"
       id="linearGradient1833-3">
      <stop
         style="stop-color:#2da9e8;stop-opacity:1"
         offset="0"
         id="stop1829-2" />
      <stop
         style="stop-color:#1b87be;stop-opacity:1"
         offset="1"
         id="stop1831-7" />
    </linearGradient>
    <linearGradient
       inkscape:collect="always"
       xlink:href="#linearGradient841"
       id="linearGradient866"
       gradientUnits="userSpaceOnUse"
       x1="0.36195564"
       y1="-1.7839961"
       x2="17.290682"
       y2="19.426983"
       gradientTransform="matrix(0.94042616,0,0,0.94042616,0.53097461,0.05438373)" />
  </defs>
  <sodipodi:namedview
     id="namedview8"
     pagecolor="#ffffff"
     bordercolor="#666666"
     borderopacity="1.0"
     inkscape:pageshadow="2"
     inkscape:pageopacity="0.0"
     inkscape:pagecheckerboard="0"
     showgrid="false"
     inkscape:zoom="18.9351"
     inkscape:cx="0.46058612"
     inkscape:cy="8.850654"
     inkscape:window-width="1920"
     inkscape:window-height="1013"
     inkscape:window-x="-9"
     inkscape:window-y="-9"
     inkscape:window-maximized="1"
     inkscape:current-layer="svg6"
     inkscape:document-rotation="0" />
  <path
     d="M 4.2926796,0.05438373 H 9.270355 A 0.94042616,0.94042616 0 0 1 9.9352363,0.3299286 l 3.4861597,3.4861598 a 0.94042616,0.94042616 0 0 1 0.275545,0.6648813 V 9.7341902 L 11.129578,7.1668268 A 0.94042616,0.94042616 0 0 0 9.7001297,7.2862609 L 7.9236648,9.7727477 6.2600509,8.7740151 A 0.94042616,0.94042616 0 0 0 5.1108501,8.915079 L 2.4118266,11.614103 V 1.9352361 A 1.8808523,1.8808523 0 0 1 4.2926796,0.05438373 Z M 9.4650232,1.465023 v 1.8808523 a 0.94042616,0.94042616 0 0 0 0.9404258,0.9404262 h 1.880853 z M 8.0562649,5.2267276 a 1.4106392,1.4106392 0 1 0 -2.8212785,0 1.4106392,1.4106392 0 0 0 2.8212785,0 z"
     id="path2-5"
     style="fill:url(#linearGradient866);fill-opacity:1;stroke-width:0.940426" />
  <path
     d="m 10.465637,7.8317081 3.231304,3.2331859 v 2.155457 a 1.8808523,1.8808523 0 0 1 -1.880852,1.880852 H 4.2926796 A 1.8808523,1.8808523 0 0 1 2.4118266,13.220351 V 12.944806 L 5.7766718,9.5809007 8.1841628,11.025396 10.465637,7.8326485 Z"
     id="path4-9"
     style="fill:url(#linearGradient1835);fill-opacity:1;stroke-width:0.940426" />
  <path
     id="path913"
     style="fill:#000000;fill-opacity:1;stroke-width:0.666353"
     d="m 10.437254,10.630815 a 1.3327038,1.3327038 0 0 0 -1.058511,0.562026 c 0.0018,0.0019 0.0034,0.0039 0.0049,0.0065 0,0 0.0017,0.0017 0.0017,0.0017 0.0045,5.96e-4 0.0095,0.0026 0.01475,0.0065 0.01909,0.01434 0.03627,0.03043 0.05407,0.04588 3.16e-4,2.74e-4 0.0013,-2.75e-4 0.0017,0 0.02114,0.01089 0.04148,0.02493 0.06063,0.03933 10e-4,5.4e-4 0.0023,0.0028 0.0033,0.0033 0.0016,0.0012 0.0034,0.0021 0.0049,0.0033 0.0082,0.0047 0.01771,0.008 0.03441,0.01802 0.05636,0.03524 0.111892,0.07135 0.163856,0.113061 0.006,0.0048 0.01093,0.0111 0.01638,0.01638 l 0.0017,0.0017 c 0.0036,0.0013 0.0071,0.0029 0.01147,0.0065 0.02237,0.01871 0.04733,0.03318 0.07046,0.0508 0.0018,0.0021 0.0033,0.0044 0.0049,0.0065 l 0.0017,0.0017 c 0.04001,0.02827 0.07128,0.0506 0.106507,0.08193 l 0.0017,0.0017 c 9.23e-4,8.39e-4 0.0024,4.63e-4 0.0033,0.0017 0.0019,0.0011 0.0032,0.0023 0.005,0.0033 a 0.66635211,0.66635211 0 0 1 1.158463,0.362123 v 0.665256 H 9.898551 c -5.13e-4,0.0012 -10e-4,0.002 -0.0017,0.0033 -9.23e-4,0.0018 -0.0019,0.0016 -0.0033,0.0017 h -0.0017 c -0.003,-3.25e-4 -0.0071,-0.0028 -0.01147,-0.0049 h -0.03441 c 2.69e-4,0.0013 0.0012,0.0018 0.0017,0.0033 -0.01446,3.64e-4 -0.02815,-6.17e-4 -0.0426,0 -0.0061,2.51e-4 -0.0148,0.0054 -0.01966,0.0017 -0.0012,-8.38e-4 -0.0011,-0.0023 -0.0017,-0.0033 h -0.0082 c -7.17e-4,0.002 -8.39e-4,0.0043 -0.0033,0.0049 l -0.0017,-0.0017 c -4.55e-4,-3.51e-4 1.19e-4,-0.0024 0,-0.0033 h -0.005 c 2.71e-4,10e-4 0.0015,0.0023 0.0017,0.0033 -0.0029,-1.1e-5 -0.0053,1.6e-5 -0.0082,0 -0.04669,0.0019 -0.09426,0.0055 -0.140917,0.0082 -0.0077,4.36e-4 -0.01534,1.24e-4 -0.02294,0 -0.0038,-6.1e-5 -0.0076,6.2e-5 -0.01147,0 -0.0038,-1.77e-4 -0.0064,1.91e-4 -0.0098,0 -0.01963,8.2e-5 -0.03936,-4.1e-5 -0.05899,0 -0.02454,-9.5e-5 -0.0492,2.72e-4 -0.07374,0 -0.02665,-2.78e-4 -0.05345,-0.0014 -0.08029,-0.0017 -0.006,-4.8e-5 -0.01201,-1.4e-4 -0.01802,0 -0.0054,-9e-6 -0.01092,5.8e-5 -0.01638,0 -0.0098,6.1e-4 -0.01973,0.0018 -0.0295,0.0033 -0.02566,0.0023 -0.05158,0.0049 -0.07701,0.0065 -7.14e-4,4.51e-4 -0.0024,-5.26e-4 -0.0033,0 -0.0013,8.39e-4 -0.0015,0.0023 -0.0033,0.0033 -0.0078,0.0023 -0.01488,0.0053 -0.02294,0.0065 -0.0067,0.0011 -0.01287,0 -0.01966,0 h -0.0213 c -0.0016,0.0012 -0.0032,0.0023 -0.0049,0.0033 -0.0036,0.0022 -0.0076,0.0033 -0.01147,0.0049 -0.0019,8.15e-4 -0.0045,0.0011 -0.0065,0.0017 -0.0035,9.23e-4 -0.0064,0.0024 -0.0098,0.0033 -0.0028,7.55e-4 -0.0054,9.23e-4 -0.0082,0.0017 -0.0011,2.82e-4 -0.0022,-2.61e-4 -0.0033,0 v 0.0049 c -0.359829,0.110615 -0.666894,0.3982 -0.666894,0.816004 v 1.599235 c 0,0.543743 0.520401,0.866799 0.999523,0.866799 h 1.99891 c 0.479108,0 0.999522,-0.323056 0.999522,-0.866799 v -1.599235 c 0,-0.417804 -0.305428,-0.705382 -0.665255,-0.816004 v -0.716327 a 1.3327038,1.3327038 0 0 0 -1.333789,-1.333789 z" />
</svg>
