<?xml version="1.0" encoding="UTF-8" standalone="no"?>
<svg
   xmlns:dc="http://purl.org/dc/elements/1.1/"
   xmlns:cc="http://creativecommons.org/ns#"
   xmlns:rdf="http://www.w3.org/1999/02/22-rdf-syntax-ns#"
   xmlns:svg="http://www.w3.org/2000/svg"
   xmlns="http://www.w3.org/2000/svg"
   xmlns:xlink="http://www.w3.org/1999/xlink"
   xmlns:sodipodi="http://sodipodi.sourceforge.net/DTD/sodipodi-0.dtd"
   xmlns:inkscape="http://www.inkscape.org/namespaces/inkscape"
   width="16"
   height="16"
   fill="currentColor"
   class="bi bi-file-earmark-image"
   viewBox="0 0 16 16"
   version="1.1"
   id="svg6"
   sodipodi:docname="image-file-lock.svg"
   inkscape:version="1.0.2-2 (e86c870879, 2021-01-15)">
  <metadata
     id="metadata13">
    <rdf:RDF>
      <cc:Work
         rdf:about="">
        <dc:format>image/svg+xml</dc:format>
        <dc:type
           rdf:resource="http://purl.org/dc/dcmitype/StillImage" />
      </cc:Work>
    </rdf:RDF>
  </metadata>
  <defs
     id="defs10">
    <linearGradient
       inkscape:collect="always"
       id="linearGradient846">
      <stop
         style="stop-color:#2da9e8;stop-opacity:1;"
         offset="0"
         id="stop842" />
      <stop
         style="stop-color:#1b87be;stop-opacity:1"
         offset="1"
         id="stop844" />
    </linearGradient>
    <linearGradient
       inkscape:collect="always"
       id="linearGradient836">
      <stop
         style="stop-color:#2da9e8;stop-opacity:1;"
         offset="0"
         id="stop832" />
      <stop
         style="stop-color:#1b87be;stop-opacity:1"
         offset="1"
         id="stop834" />
    </linearGradient>
    <linearGradient
       inkscape:collect="always"
       xlink:href="#linearGradient836"
       id="linearGradient838"
       x1="1.5315472"
       y1="-1.5315472"
       x2="15.209848"
       y2="17.744823"
       gradientUnits="userSpaceOnUse" />
    <linearGradient
       inkscape:collect="always"
       xlink:href="#linearGradient846"
       id="linearGradient840"
       x1="1.5315472"
       y1="-1.5315472"
       x2="15.209848"
       y2="17.744823"
       gradientUnits="userSpaceOnUse" />
  </defs>
  <sodipodi:namedview
     id="namedview8"
     pagecolor="#ffffff"
     bordercolor="#666666"
     borderopacity="1.0"
     inkscape:pageshadow="2"
     inkscape:pageopacity="0.0"
     inkscape:pagecheckerboard="0"
     showgrid="false"
     inkscape:zoom="18.9351"
     inkscape:cx="11.515132"
     inkscape:cy="12.93217"
     inkscape:window-width="1920"
     inkscape:window-height="1013"
     inkscape:window-x="-9"
     inkscape:window-y="-9"
     inkscape:window-maximized="1"
     inkscape:current-layer="svg6"
     inkscape:document-rotation="0" />
  <path
     d="M 4.2627878,0.02287119 H 9.240463 a 0.94042616,0.94042616 0 0 1 0.6648808,0.275545 L 13.391504,3.7845751 a 0.94042616,0.94042616 0 0 1 0.275545,0.664882 v 5.25322 L 11.099686,7.1353141 A 0.94042616,0.94042616 0 0 0 9.670238,7.2547481 L 7.893773,9.7412351 6.2301591,8.7425021 A 0.94042616,0.94042616 0 0 0 5.0809583,8.8835661 L 2.3819348,11.58259 V 1.9037231 A 1.8808523,1.8808523 0 0 1 4.2627878,0.02287119 Z M 9.435131,1.4335101 v 1.880852 a 0.94042616,0.94042616 0 0 0 0.940426,0.940426 h 1.880853 z m -1.408758,3.761705 a 1.4106392,1.4106392 0 1 0 -2.8212784,0 1.4106392,1.4106392 0 0 0 2.8212784,0 z"
     id="path2-5"
     style="fill:url(#linearGradient838);fill-opacity:1;stroke-width:0.940426" />
  <path
     d="m 10.435745,7.8001951 3.231304,3.2331859 v 2.155457 A 1.8808523,1.8808523 0 0 1 11.786197,15.06969 H 4.2627878 A 1.8808523,1.8808523 0 0 1 2.3819348,13.188838 V 12.913293 L 5.74678,9.5493881 8.154271,10.993883 10.435745,7.8011361 Z"
     id="path4-9"
     style="fill:url(#linearGradient840);fill-opacity:1;stroke-width:0.940426" />
  <path
     d="m 11.059432,12.044807 v 0.702992 c 0.3528,0.108462 0.653337,0.390043 0.653337,0.799688 v 1.568009 c 0,0.533123 -0.510256,0.849339 -0.980008,0.849339 H 8.7727495 c -0.4697507,0 -0.9800064,-0.316216 -0.9800064,-0.849339 v -1.568009 c 0,-0.409645 0.300534,-0.691233 0.6533354,-0.799688 v -0.702992 a 1.3066772,1.3066772 0 1 1 2.6133535,0 z m -1.9600145,0 v 0.653339 h 1.3066765 v -0.653339 a 0.65333877,0.65333877 0 0 0 -1.3066765,0 z"
     id="path862"
     style="fill:#000000;fill-opacity:1;stroke-width:0.653339" />
</svg>
