<?xml version="1.0" encoding="UTF-8" standalone="no"?>
<svg
   width="16"
   height="16"
   fill="currentColor"
   class="bi bi-1-square"
   viewBox="0 0 16 16"
   version="1.1"
   id="svg6"
   sodipodi:docname="logo&amp;.svg"
   inkscape:version="1.1.2 (b8e25be833, 2022-02-05)"
   xmlns:inkscape="http://www.inkscape.org/namespaces/inkscape"
   xmlns:sodipodi="http://sodipodi.sourceforge.net/DTD/sodipodi-0.dtd"
   xmlns:xlink="http://www.w3.org/1999/xlink"
   xmlns="http://www.w3.org/2000/svg"
   xmlns:svg="http://www.w3.org/2000/svg"
   xmlns:rdf="http://www.w3.org/1999/02/22-rdf-syntax-ns#"
   xmlns:cc="http://creativecommons.org/ns#"
   xmlns:dc="http://purl.org/dc/elements/1.1/">
  <metadata
     id="metadata12">
    <rdf:RDF>
      <cc:Work
         rdf:about="">
        <dc:format>image/svg+xml</dc:format>
        <dc:type
           rdf:resource="http://purl.org/dc/dcmitype/StillImage" />
      </cc:Work>
    </rdf:RDF>
  </metadata>
  <defs
     id="defs10">
    <linearGradient
       id="linearGradient13008"
       inkscape:swatch="solid">
      <stop
         style="stop-color:#000000;stop-opacity:1;"
         offset="0"
         id="stop13006" />
    </linearGradient>
    <linearGradient
       inkscape:collect="always"
       xlink:href="#linearGradient14424"
       id="linearGradient14426"
       x1="-0.11356541"
       y1="9.1131754"
       x2="15.037705"
       y2="9.1131754"
       gradientUnits="userSpaceOnUse"
       gradientTransform="translate(0.15331152,-2.7288356)" />
    <linearGradient
       inkscape:collect="always"
       id="linearGradient14424">
      <stop
         style="stop-color:#00ff00;stop-opacity:1"
         offset="0"
         id="stop14420" />
      <stop
         style="stop-color:#00ffff;stop-opacity:1"
         offset="1"
         id="stop14422" />
    </linearGradient>
  </defs>
  <sodipodi:namedview
     pagecolor="#ffffff"
     bordercolor="#666666"
     borderopacity="1"
     objecttolerance="10"
     gridtolerance="10"
     guidetolerance="10"
     inkscape:pageopacity="0"
     inkscape:pageshadow="2"
     inkscape:window-width="1920"
     inkscape:window-height="1228"
     id="namedview8"
     showgrid="false"
     inkscape:zoom="34.683851"
     inkscape:cx="7.9864257"
     inkscape:cy="8.4333196"
     inkscape:window-x="-6"
     inkscape:window-y="-6"
     inkscape:window-maximized="1"
     inkscape:current-layer="svg6"
     inkscape:document-rotation="0"
     inkscape:pagecheckerboard="0" />
  <g
     aria-label="WWW.EX3.PL"
     id="text897"
     style="font-style:normal;font-variant:normal;font-weight:normal;font-stretch:normal;font-size:2.42277px;line-height:8.05;font-family:'Microsoft Sans Serif';-inkscape-font-specification:'Microsoft Sans Serif';stroke-width:0.0324479"
     transform="translate(0,1.5683645)">
    <path
       d="M 2.4440894,8.2546951 1.9637942,9.9889631 H 1.7437575 L 1.3273439,8.4818298 0.90974729,9.9889631 H 0.68971056 L 0.21059832,8.2546951 H 0.45192893 L 0.79854593,9.667189 1.1889337,8.2546951 H 1.4645711 L 1.8549588,9.667189 2.2015758,8.2546951 Z"
       style="stroke-width:0.0324479"
       id="path846" />
    <path
       d="M 4.7308152,8.2546951 4.25052,9.9889631 H 4.0304832 L 3.6140696,8.4818298 3.196473,9.9889631 H 2.9764363 L 2.4973241,8.2546951 H 2.7386547 L 3.0852717,9.667189 3.4756594,8.2546951 H 3.7512968 L 4.1416846,9.667189 4.4883016,8.2546951 Z"
       style="stroke-width:0.0324479"
       id="path848" />
    <path
       d="M 7.017541,8.2546951 6.5372457,9.9889631 H 6.317209 L 5.9007954,8.4818298 5.4831988,9.9889631 H 5.2631621 L 4.7840498,8.2546951 H 5.0253804 L 5.3719975,9.667189 5.7623852,8.2546951 H 6.0380226 L 6.4284104,9.667189 6.7750274,8.2546951 Z"
       style="stroke-width:0.0324479"
       id="path850" />
    <path
       d="M 7.4990189,9.9889631 H 7.2565053 V 9.7464495 h 0.2425136 z"
       style="stroke-width:0.0324479"
       id="path852" />
    <path
       d="M 9.2013463,9.9889631 H 7.9083348 v -1.734268 h 1.2527897 v 0.2058408 h -1.023289 v 0.529981 H 9.0948769 V 9.1963577 H 8.1378355 v 0.5867646 h 1.0635108 z"
       style="stroke-width:0.0324479"
       id="path854" />
    <path
       d="M 10.934431,9.9889631 H 10.652879 L 10.13946,9.2543244 9.6236749,9.9889631 H 9.3421225 L 10.008148,9.0756924 9.4083701,8.2546951 h 0.2803694 l 0.4483545,0.6411823 0.45072,-0.6411823 h 0.28037 L 10.26604,9.0756924 Z"
       style="stroke-width:0.0324479"
       id="path856" />
    <path
       d="m 11.859532,9.0366536 q 0.158521,0.041405 0.243697,0.1608871 0.08636,0.1194823 0.08636,0.2803694 0,0.2401476 -0.164436,0.3903877 -0.164436,0.1502402 -0.408133,0.1502402 -0.244879,0 -0.398668,-0.1336783 -0.153789,-0.1336782 -0.165619,-0.3537149 h 0.230683 q 0,0.1277632 0.08636,0.2200367 0.08636,0.092274 0.247245,0.092274 0.156156,0 0.248429,-0.1005545 0.09346,-0.1005544 0.09346,-0.2602585 0,-0.163253 -0.097,-0.2507945 -0.09582,-0.088725 -0.280369,-0.088725 h -0.08518 v -0.1739 h 0.05087 q 0.32414,0 0.32414,-0.2981143 0,-0.1313122 -0.07098,-0.2011088 -0.07098,-0.069797 -0.199925,-0.069797 -0.264991,0 -0.295749,0.2756374 h -0.2295 q 0.02484,-0.2200367 0.167985,-0.3347871 0.143142,-0.1159333 0.352532,-0.1159333 0.231866,0 0.369093,0.1265803 0.137228,0.1253972 0.137228,0.3241401 0,0.1112014 -0.06033,0.2105728 -0.05915,0.098188 -0.182181,0.1502401 z"
       style="stroke-width:0.0324479"
       id="path858" />
    <path
       d="M 12.751509,9.9889631 H 12.508995 V 9.7464495 h 0.242514 z"
       style="stroke-width:0.0324479"
       id="path860" />
    <path
       d="m 13.160825,8.2546951 h 0.647097 q 0.212939,0 0.356081,0.040222 0.144325,0.039039 0.228318,0.171534 0.08399,0.1313123 0.08399,0.2945653 0,0.2626245 -0.166802,0.3986687 -0.166802,0.1360442 -0.482661,0.1360442 h -0.436525 v 0.693234 h -0.2295 z m 0.2295,0.8351932 h 0.438891 q 0.22122,0 0.314676,-0.082809 0.09464,-0.082809 0.09464,-0.2389646 0,-0.1041034 -0.05205,-0.184547 -0.05205,-0.080443 -0.132495,-0.1017374 -0.07926,-0.021294 -0.229501,-0.021294 h -0.434159 z"
       style="stroke-width:0.0324479"
       id="path862" />
    <path
       d="m 15.849768,9.9889631 h -1.072974 v -1.734268 h 0.2295 v 1.5284272 h 0.843474 z"
       style="stroke-width:0.0324479"
       id="path864" />
  </g>
  <g
     id="g867"
     transform="matrix(0.63393769,0,0,0.63393769,2.9091628,1.0669684)">
    <path
       style="fill:none;stroke:#b47cff;stroke-width:0.7;stroke-linecap:round;stroke-linejoin:round;stroke-miterlimit:4;stroke-dasharray:none;stroke-opacity:1"
       d="m 0.8583096,4.6535578 c 0,0 3.0254957,-0.1860374 4.3353425,0.4419417 2.5605893,1.2276219 3.4216298,4.835926 5.9807529,6.0666015 1.279165,0.615147 4.235175,0.441942 4.235175,0.441942"
       id="path2190"
       sodipodi:nodetypes="caac" />
    <path
       style="fill:none;stroke:#000000;stroke-width:0.72;stroke-linecap:round;stroke-linejoin:miter;stroke-miterlimit:4;stroke-dasharray:none;stroke-opacity:1"
       d="M 0.90435691,8.1288002 H 4.403028"
       id="path2365"
       sodipodi:nodetypes="cc" />
    <path
       style="fill:none;stroke:#000000;stroke-width:0.7;stroke-linecap:round;stroke-linejoin:round;stroke-miterlimit:4;stroke-dasharray:none;stroke-opacity:1"
       d="m 9.1036773,6.9891693 c 0,0 1.2175107,-1.5103968 2.0707277,-1.8936698 1.299083,-0.5835599 4.249483,-0.4419417 4.249483,-0.4419417"
       id="path1027"
       sodipodi:nodetypes="cac" />
    <path
       style="fill:none;stroke:#000000;stroke-width:0.7;stroke-linecap:round;stroke-linejoin:round;stroke-miterlimit:4;stroke-dasharray:none;stroke-opacity:1"
       d="m 7.2266645,9.1715941 c 0,0 -1.2365407,1.5897729 -2.1188606,1.9905069 -1.2959845,0.588614 -4.249483,0.419845 -4.249483,0.419845"
       id="path2926"
       sodipodi:nodetypes="cac" />
    <path
       style="fill:none;stroke:#000000;stroke-width:0.72;stroke-linecap:round;stroke-linejoin:miter;stroke-miterlimit:4;stroke-dasharray:none;stroke-opacity:1"
       d="m 11.870036,8.1288002 h 3.498671"
       id="path3720"
       sodipodi:nodetypes="cc" />
    <path
       style="opacity:0.691824;fill:none;stroke:url(#linearGradient14426);stroke-width:0.7;stroke-linecap:round;stroke-linejoin:round;stroke-miterlimit:4;stroke-dasharray:none;stroke-opacity:1"
       d="m 0.8583096,4.6535578 c 0,0 3.0254957,-0.1860374 4.3353425,0.4419417 2.5605893,1.227622 3.4216297,4.8359261 5.9807529,6.0666015 1.279165,0.615147 4.235175,0.441942 4.235175,0.441942"
       id="path12438"
       sodipodi:nodetypes="caac" />
  </g>
  <text
     xml:space="preserve"
     style="font-size:1.33333px;line-height:1.25;font-family:Webdings;-inkscape-font-specification:Webdings"
     x="6.5160007"
     y="14.444763"
     id="text1480"><tspan
       sodipodi:role="line"
       id="tspan1478"
       x="6.5160007"
       y="14.444763"
       style="font-style:normal;font-variant:normal;font-weight:normal;font-stretch:normal;font-family:Magneto;-inkscape-font-specification:Magneto" /></text>
</svg>
