<?xml version="1.0" encoding="UTF-8" standalone="no"?>
<svg
   xmlns:dc="http://purl.org/dc/elements/1.1/"
   xmlns:cc="http://creativecommons.org/ns#"
   xmlns:rdf="http://www.w3.org/1999/02/22-rdf-syntax-ns#"
   xmlns:svg="http://www.w3.org/2000/svg"
   xmlns="http://www.w3.org/2000/svg"
   xmlns:sodipodi="http://sodipodi.sourceforge.net/DTD/sodipodi-0.dtd"
   xmlns:inkscape="http://www.inkscape.org/namespaces/inkscape"
   viewBox="0 0 1600 800"
   height="800"
   width="1600"
   xml:space="preserve"
   id="svg2"
   version="1.1"
   sodipodi:docname="mainBackground.svg"
   inkscape:version="1.0.2-2 (e86c870879, 2021-01-15)"><sodipodi:namedview
     pagecolor="#ffffff"
     bordercolor="#666666"
     borderopacity="1"
     objecttolerance="10"
     gridtolerance="10"
     guidetolerance="10"
     inkscape:pageopacity="0"
     inkscape:pageshadow="2"
     inkscape:window-width="1920"
     inkscape:window-height="1027"
     id="namedview70"
     showgrid="false"
     inkscape:zoom="0.47790247"
     inkscape:cx="642.28188"
     inkscape:cy="179.26909"
     inkscape:window-x="-8"
     inkscape:window-y="-8"
     inkscape:window-maximized="1"
     inkscape:current-layer="svg2"
     inkscape:pagecheckerboard="0"
     inkscape:document-rotation="0" /><metadata
     id="metadata8"><rdf:RDF><cc:Work
         rdf:about=""><dc:format>image/svg+xml</dc:format><dc:type
           rdf:resource="http://purl.org/dc/dcmitype/StillImage" /></cc:Work></rdf:RDF></metadata><defs
     id="defs6" /><g
     transform="matrix(1.3333333,0,0,-1.3333333,0,800)"
     id="g10"><g
       transform="scale(0.1)"
       id="g12"><path
         id="path14"
         style="fill:#f2f2f0;fill-opacity:1;fill-rule:nonzero;stroke:none"
         d="M 12000,6000 H 0 V 0 h 12000 v 6000" /><path
         id="path16"
         style="fill:#f03f44;fill-opacity:1;fill-rule:nonzero;stroke:none"
         d="m 10333,625.531 -41.9,-325.472 -186.9,193.492 z" /><path
         id="path18"
         style="fill:none;stroke:#05c025;stroke-width:20;stroke-linecap:butt;stroke-linejoin:miter;stroke-miterlimit:10;stroke-dasharray:none;stroke-opacity:1"
         d="m -32.9883,2331.95 -498.0237,498.02 c -146.238,146.24 -146.238,383.35 0,529.59 l 498.0237,498.01 c 146.2423,146.24 383.3403,146.24 529.5823,0 l 498.019,-498.01 c 146.237,-146.24 146.237,-383.35 0,-529.59 L 496.594,2331.95 c -146.242,-146.24 -383.34,-146.24 -529.5823,0 z" /><path
         id="path20"
         style="fill:none;stroke:#05c025;stroke-width:20;stroke-linecap:butt;stroke-linejoin:miter;stroke-miterlimit:10;stroke-dasharray:none;stroke-opacity:1"
         d="M 1023.76,929.641 560.688,1392.71 c -155.887,155.89 -155.887,408.64 0,564.54 l 463.072,463.07 c 155.89,155.89 408.64,155.89 564.53,0 l 463.08,-463.07 c 155.89,-155.9 155.89,-408.65 0,-564.54 L 1588.29,929.641 c -155.89,-155.891 -408.64,-155.891 -564.53,0 z" /><path
         id="path22"
         style="fill:none;stroke:#2d2f46;stroke-width:20;stroke-linecap:butt;stroke-linejoin:miter;stroke-miterlimit:10;stroke-dasharray:none;stroke-opacity:1"
         d="M 371.988,3253.7 -1358.48,4984.16 c -155.89,155.89 -155.89,408.63 0,564.53 L 371.988,7279.15 c 155.887,155.88 408.633,155.88 564.52,0 L 2666.97,5548.69 c 155.89,-155.9 155.89,-408.64 0,-564.53 L 936.508,3253.7 c -155.887,-155.89 -408.633,-155.89 -564.52,0 z" /><path
         id="path24"
         style="fill:none;stroke:#05c025;stroke-width:20;stroke-linecap:butt;stroke-linejoin:miter;stroke-miterlimit:10;stroke-dasharray:none;stroke-opacity:1"
         d="m 2739.68,4478.6 -505.56,505.56 c -155.89,155.89 -155.89,408.63 0,564.53 l 505.56,505.55 c 155.89,155.89 408.64,155.89 564.52,0 l 505.56,-505.55 c 155.89,-155.9 155.89,-408.64 0,-564.53 L 3304.2,4478.6 c -155.88,-155.89 -408.63,-155.89 -564.52,0 z" /><path
         id="path26"
         style="fill:none;stroke:#05c025;stroke-width:20;stroke-linecap:butt;stroke-linejoin:miter;stroke-miterlimit:10;stroke-dasharray:none;stroke-opacity:1"
         d="m 2007.12,2471.54 -602.86,602.86 c -90.31,90.31 -90.31,236.73 0,327.04 l 602.86,602.86 c 90.31,90.3 236.72,90.3 327.03,0 l 602.86,-602.86 c 90.31,-90.31 90.31,-236.73 0,-327.04 l -602.86,-602.86 c -90.31,-90.3 -236.72,-90.3 -327.03,0 z" /><path
         id="path30"
         style="fill:#31ae60;fill-opacity:0.51764709;fill-rule:nonzero;stroke:none"
         d="m 983.863,1195.67 -463.082,463.08 c -155.886,155.89 -155.886,408.63 0,564.52 l 463.082,463.08 c 155.887,155.9 408.637,155.9 564.527,0 l 463.07,-463.08 c 155.89,-155.89 155.89,-408.63 0,-564.52 l -463.07,-463.08 c -155.89,-155.88 -408.64,-155.88 -564.527,0" /><path
         id="path32"
         style="fill:#2d2f46;fill-opacity:1;fill-rule:nonzero;stroke:none"
         d="M 332.078,3519.73 -1398.38,5250.19 c -155.89,155.89 -155.89,408.64 0,564.53 L 332.078,7545.18 c 155.891,155.89 408.641,155.89 564.527,0 L 2627.07,5814.72 c 155.88,-155.89 155.88,-408.64 0,-564.53 L 896.605,3519.73 c -155.886,-155.89 -408.636,-155.89 -564.527,0" /><path
         id="path34"
         style="fill:#31ae60;fill-opacity:0.51764709;fill-rule:nonzero;stroke:none"
         d="m 2699.77,4744.64 -505.55,505.55 c -155.89,155.89 -155.89,408.64 0,564.53 l 505.55,505.55 c 155.89,155.89 408.64,155.89 564.53,0 l 505.55,-505.55 c 155.89,-155.89 155.89,-408.64 0,-564.53 L 3264.3,4744.64 c -155.89,-155.89 -408.64,-155.89 -564.53,0" /><path
         id="path38"
         style="fill:none;stroke:#05c025;stroke-width:20;stroke-linecap:butt;stroke-linejoin:miter;stroke-miterlimit:10;stroke-dasharray:none;stroke-opacity:1"
         d="m 3151.1,3635.62 -204.6,204.6 c -70.42,70.42 -70.42,184.59 0,255.01 l 204.6,204.6 c 70.42,70.42 184.59,70.42 255.01,0 l 204.6,-204.6 c 70.42,-70.42 70.42,-184.59 0,-255.01 l -204.6,-204.6 c -70.42,-70.41 -184.59,-70.41 -255.01,0 z" /><path
         id="path40"
         style="fill:none;stroke:#05c025;stroke-width:20;stroke-linecap:butt;stroke-linejoin:miter;stroke-miterlimit:10;stroke-dasharray:none;stroke-opacity:1"
         d="m 3226.03,2790.5 -66.24,66.24 c -34.21,34.21 -34.21,89.68 0,123.88 l 66.24,66.25 c 34.21,34.21 89.68,34.21 123.89,0 l 66.24,-66.25 c 34.21,-34.2 34.21,-89.67 0,-123.88 l -66.24,-66.24 c -34.21,-34.21 -89.68,-34.21 -123.89,0 z" /><path
         id="path42"
         style="fill:none;stroke:#05c025;stroke-width:20;stroke-linecap:butt;stroke-linejoin:miter;stroke-miterlimit:10;stroke-dasharray:none;stroke-opacity:1"
         d="m 8724.82,2359.07 -317.87,317.87 c -104.21,104.21 -104.21,273.17 0,377.38 l 317.87,317.88 c 104.22,104.21 273.18,104.21 377.39,0 l 317.87,-317.88 c 104.22,-104.21 104.22,-273.17 0,-377.38 l -317.87,-317.87 c -104.21,-104.22 -273.17,-104.22 -377.39,0 z" /><path
         id="path44"
         style="fill:none;stroke:#05c025;stroke-width:20;stroke-linecap:butt;stroke-linejoin:miter;stroke-miterlimit:10;stroke-dasharray:none;stroke-opacity:1"
         d="m 10989.8,2220.77 -628.2,628.17 c -155.8,155.88 -155.8,408.63 0,564.52 l 628.2,628.17 c 155.9,155.89 408.6,155.89 564.5,0 l 628.2,-628.17 c 155.9,-155.89 155.9,-408.64 0,-564.52 l -628.2,-628.17 c -155.9,-155.89 -408.6,-155.89 -564.5,0 z" /><path
         id="path46"
         style="fill:none;stroke:#05c025;stroke-width:20;stroke-linecap:butt;stroke-linejoin:miter;stroke-miterlimit:10;stroke-dasharray:none;stroke-opacity:1"
         d="m 12501.5,-969.559 -463,463.079 c -155.9,155.878 -155.9,408.6402 0,564.5308 l 463,463.0702 c 155.9,155.891 408.7,155.891 564.6,0 l 463,-463.0702 c 155.9,-155.8906 155.9,-408.6528 0,-564.5308 l -463,-463.079 c -155.9,-155.891 -408.7,-155.891 -564.6,0 z" /><path
         id="path48"
         style="fill:none;stroke:#05c025;stroke-width:20;stroke-linecap:butt;stroke-linejoin:miter;stroke-miterlimit:10;stroke-dasharray:none;stroke-opacity:1"
         d="m 10961.8,-1584.93 -463.1,463.08 c -155.9,155.889 -155.9,408.639 0,564.53 l 463.1,463.07 c 155.8,155.8906 408.6,155.8906 564.5,0 l 463.1,-463.07 c 155.8,-155.891 155.8,-408.641 0,-564.53 l -463.1,-463.08 c -155.9,-155.89 -408.7,-155.89 -564.5,0 z" /><path
         id="path50"
         style="fill:none;stroke:#2d2f46;stroke-width:20;stroke-linecap:butt;stroke-linejoin:miter;stroke-miterlimit:10;stroke-dasharray:none;stroke-opacity:1"
         d="M 11198,-747.16 9467.52,983.301 c -155.89,155.889 -155.89,408.629 0,564.529 L 11198,3278.29 c 155.9,155.89 408.6,155.89 564.5,0 L 13493,1547.83 c 155.8,-155.9 155.8,-408.64 0,-564.529 L 11762.5,-747.16 c -155.9,-155.891 -408.6,-155.891 -564.5,0 z" /><path
         id="path52"
         style="fill:none;stroke:#05c025;stroke-width:20;stroke-linecap:butt;stroke-linejoin:miter;stroke-miterlimit:10;stroke-dasharray:none;stroke-opacity:1"
         d="m 8659.54,206.051 -555.63,555.64 c -155.89,155.891 -155.89,408.629 0,564.519 l 555.63,555.64 c 155.89,155.88 408.63,155.88 564.52,0 l 555.64,-555.64 c 155.89,-155.89 155.89,-408.628 0,-564.519 l -555.64,-555.64 c -155.89,-155.8791 -408.63,-155.8791 -564.52,0 z" /><path
         id="path54"
         style="fill:none;stroke:#05c025;stroke-width:20;stroke-linecap:butt;stroke-linejoin:miter;stroke-miterlimit:10;stroke-dasharray:none;stroke-opacity:1"
         d="m 11127.6,4143.82 -269.7,269.7 c -123.4,123.43 -123.4,323.56 0,446.98 l 269.7,269.71 c 123.5,123.42 323.6,123.42 447,0 l 269.7,-269.71 c 123.4,-123.42 123.4,-323.55 0,-446.98 l -269.7,-269.7 c -123.4,-123.43 -323.5,-123.43 -447,0 z" /><path
         id="path56"
         style="fill:none;stroke:#05c025;stroke-width:20;stroke-linecap:butt;stroke-linejoin:miter;stroke-miterlimit:10;stroke-dasharray:none;stroke-opacity:1"
         d="m 11762.3,3506.81 -204.6,204.6 c -70.4,70.42 -70.4,184.59 0,255.01 l 204.6,204.6 c 70.4,70.42 184.6,70.42 255,0 l 204.6,-204.6 c 70.5,-70.42 70.5,-184.59 0,-255.01 l -204.6,-204.6 c -70.4,-70.42 -184.6,-70.42 -255,0 z" /><path
         id="path58"
         style="fill:none;stroke:#05c025;stroke-width:20;stroke-linecap:butt;stroke-linejoin:miter;stroke-miterlimit:10;stroke-dasharray:none;stroke-opacity:1"
         d="m 9821.72,2247 -204.6,204.6 c -70.42,70.42 -70.42,184.59 0,255.01 l 204.6,204.6 c 70.42,70.42 184.58,70.42 254.98,0 l 204.6,-204.6 c 70.4,-70.42 70.4,-184.59 0,-255.01 L 10076.7,2247 c -70.4,-70.42 -184.56,-70.42 -254.98,0 z" /><path
         id="path60"
         style="fill:none;stroke:#05c025;stroke-width:20;stroke-linecap:butt;stroke-linejoin:miter;stroke-miterlimit:10;stroke-dasharray:none;stroke-opacity:1"
         d="m 9706.33,3376.74 -66.24,66.24 c -34.21,34.21 -34.21,89.68 0,123.89 l 66.24,66.24 c 34.21,34.21 89.68,34.21 123.88,0 l 66.25,-66.24 c 34.21,-34.21 34.21,-89.68 0,-123.89 l -66.25,-66.24 c -34.2,-34.22 -89.67,-34.22 -123.88,0 z" /><path
         id="path62"
         style="fill:#31ae60;fill-opacity:0.51764709;fill-rule:nonzero;stroke:none"
         d="m 8884.45,1960.02 -317.88,317.87 c -104.21,104.21 -104.21,273.17 0,377.38 l 317.88,317.87 c 104.21,104.22 273.17,104.22 377.38,0 l 317.87,-317.87 c 104.22,-104.21 104.22,-273.17 0,-377.38 l -317.87,-317.87 c -104.21,-104.21 -273.17,-104.21 -377.38,0" /><path
         id="path66"
         style="fill:#2d2f46;fill-opacity:1;fill-rule:nonzero;stroke:none"
         d="M 11357.6,-1146.21 9627.14,584.25 c -155.89,155.902 -155.89,408.641 0,564.53 l 1730.46,1730.46 c 155.9,155.89 408.6,155.89 564.5,0 l 1730.5,-1730.46 c 155.9,-155.889 155.9,-408.628 0,-564.53 l -1730.5,-1730.46 c -155.9,-155.89 -408.6,-155.89 -564.5,0" /><path
         id="path68"
         style="fill:#31ae60;fill-opacity:0.51764709;fill-rule:nonzero;stroke:none"
         d="m 8819.16,-192.988 -555.63,555.629 c -155.89,155.89 -155.89,408.64 0,564.531 l 555.63,555.618 c 155.89,155.89 408.63,155.89 564.52,0 l 555.64,-555.618 c 155.88,-155.891 155.88,-408.641 0,-564.531 l -555.64,-555.629 c -155.89,-155.891 -408.63,-155.891 -564.52,0" /><path
         id="path70"
         style="fill:#31ae60;fill-opacity:0.51588786;fill-rule:nonzero;stroke:none"
         d="m 11287.2,3744.77 -269.7,269.7 c -123.4,123.43 -123.4,323.55 0,446.99 l 269.7,269.69 c 123.5,123.43 323.6,123.43 447,0 l 269.7,-269.69 c 123.5,-123.44 123.5,-323.56 0,-446.99 l -269.7,-269.7 c -123.4,-123.43 -323.5,-123.43 -447,0" /><path
         id="path72"
         style="fill:#31ae60;fill-opacity:0.51764709;fill-rule:nonzero;stroke:none"
         d="m 11921.9,3107.76 -204.6,204.6 c -70.4,70.42 -70.4,184.59 0,255.01 l 204.6,204.6 c 70.5,70.42 184.6,70.42 255.1,0 l 204.6,-204.6 c 70.4,-70.42 70.4,-184.59 0,-255.01 l -204.6,-204.6 c -70.5,-70.42 -184.6,-70.42 -255.1,0" /><path
         id="path80"
         style="fill:#31ae60;fill-opacity:0.51764709;fill-rule:nonzero;stroke:none"
         d="m 3230.86,2941.38 -66.25,66.24 c -34.2,34.21 -34.2,89.68 0,123.89 l 66.25,66.24 c 34.21,34.21 89.68,34.21 123.89,0 l 66.24,-66.24 c 34.21,-34.21 34.21,-89.68 0,-123.89 l -66.24,-66.24 c -34.21,-34.21 -89.68,-34.21 -123.89,0" /><g
         transform="scale(10)"
         id="g82">


</g><path
         id="path98"
         style="fill:#f2f2f0;fill-opacity:1;fill-rule:nonzero;stroke:none"
         d="m 6390.53,1982.4 v 0 c 0,0 0,0 0,-0.01 0,0 0,0 0,0.01" /><path
         id="path118"
         style="fill:#f2f2f0;fill-opacity:1;fill-rule:nonzero;stroke:none"
         d="m 7611.47,3321.06 c -57.31,0 -99.2,-28.81 -120.14,-79.79 h 232.58 c -19.84,52.09 -58.42,79.79 -112.44,79.79" /></g></g></svg>
