<?xml version="1.0" encoding="UTF-8" standalone="no"?>
<svg
   xmlns:dc="http://purl.org/dc/elements/1.1/"
   xmlns:cc="http://creativecommons.org/ns#"
   xmlns:rdf="http://www.w3.org/1999/02/22-rdf-syntax-ns#"
   xmlns:svg="http://www.w3.org/2000/svg"
   xmlns="http://www.w3.org/2000/svg"
   xmlns:xlink="http://www.w3.org/1999/xlink"
   xmlns:sodipodi="http://sodipodi.sourceforge.net/DTD/sodipodi-0.dtd"
   xmlns:inkscape="http://www.inkscape.org/namespaces/inkscape"
   width="16"
   height="16"
   fill="currentColor"
   class="bi bi-file-earmark-music-fill"
   viewBox="0 0 16 16"
   version="1.1"
   id="svg4"
   sodipodi:docname="music-file-unlock.svg"
   inkscape:version="1.0.2-2 (e86c870879, 2021-01-15)">
  <metadata
     id="metadata11">
    <rdf:RDF>
      <cc:Work
         rdf:about="">
        <dc:format>image/svg+xml</dc:format>
        <dc:type
           rdf:resource="http://purl.org/dc/dcmitype/StillImage" />
      </cc:Work>
    </rdf:RDF>
  </metadata>
  <defs
     id="defs8">
    <linearGradient
       inkscape:collect="always"
       xlink:href="#linearGradient931"
       id="linearGradient933"
       x1="-1.0458971"
       y1="-0.26703754"
       x2="16.155771"
       y2="15.488178"
       gradientUnits="userSpaceOnUse" />
    <linearGradient
       inkscape:collect="always"
       id="linearGradient931">
      <stop
         style="stop-color:#d88383;stop-opacity:1;"
         offset="0"
         id="stop927" />
      <stop
         style="stop-color:#d88383;stop-opacity:1"
         offset="1"
         id="stop929" />
    </linearGradient>
  </defs>
  <sodipodi:namedview
     id="namedview6"
     pagecolor="#ffffff"
     bordercolor="#666666"
     borderopacity="1.0"
     inkscape:pageshadow="2"
     inkscape:pageopacity="0.0"
     inkscape:pagecheckerboard="0"
     showgrid="false"
     inkscape:zoom="30.923434"
     inkscape:cx="17.46875"
     inkscape:cy="5.734375"
     inkscape:window-width="1920"
     inkscape:window-height="1013"
     inkscape:window-x="-9"
     inkscape:window-y="-9"
     inkscape:window-maximized="1"
     inkscape:current-layer="svg4"
     inkscape:document-rotation="0" />
  <path
     d="M 9.1994868,0 H 4.2892907 A 1.8553547,1.8553547 0 0 0 2.433936,1.8553546 V 12.987483 a 1.8553547,1.8553547 0 0 0 1.8553547,1.855355 h 7.4214183 a 1.8553547,1.8553547 0 0 0 1.855355,-1.855355 V 4.3665772 A 0.92767733,0.92767733 0 0 0 13.294255,3.7107093 L 9.8553547,0.27180946 A 0.92767733,0.92767733 0 0 0 9.1994868,0 Z M 9.391516,3.2468706 V 1.391516 l 2.783032,2.7830319 H 10.319193 A 0.92767733,0.92767733 0 0 1 9.391516,3.2468706 Z m 1.391516,2.9129068 V 7.7832128 L 8.9276773,8.2470514 v 3.3489156 c 0,0.4592 -0.2792308,0.819139 -0.6141224,1.041782 -0.3376745,0.225425 -0.7783212,0.349734 -1.2412322,0.349734 -0.4638387,0 -0.9035577,-0.124309 -1.2412323,-0.349734 C 5.4971266,12.415106 5.216968,12.055167 5.216968,11.595967 c 0,-0.4592 0.2792309,-0.819139 0.6141224,-1.041782 0.3376746,-0.225425 0.7783213,-0.349734 1.2412323,-0.349734 0.3302531,0 0.6493741,0.06308 0.9276773,0.181825 V 6.3916968 A 0.92767733,0.92767733 0 0 1 8.7022517,5.4918498 L 9.6299291,5.2599304 a 0.92767733,0.92767733 0 0 1 1.1531029,0.899847 z"
     id="path2"
     style="fill:url(#linearGradient933);fill-opacity:1;stroke-width:0.927677" />
  <path
     id="path2-4"
     style="fill:#000000;fill-opacity:1;stroke-width:0.666353"
     d="m 10.224166,10.704516 a 1.3327038,1.3327038 0 0 0 -1.0585111,0.562026 c 0.00176,0.0019 0.00344,0.0039 0.00495,0.0065 0,0 0.00168,0.0017 0.00168,0.0017 0.00453,5.96e-4 0.00951,0.0026 0.014749,0.0065 0.019086,0.01434 0.036268,0.03043 0.05407,0.04588 3.155e-4,2.74e-4 0.00134,-2.75e-4 0.00168,0 0.021141,0.01089 0.041477,0.02493 0.06063,0.03933 0.00101,5.4e-4 0.00235,0.0028 0.00327,0.0033 0.00159,0.0012 0.00336,0.0021 0.00495,0.0033 0.00822,0.0047 0.01771,0.008 0.034413,0.01802 0.05636,0.03524 0.1118916,0.07135 0.1638557,0.113061 0.00596,0.0048 0.010931,0.0111 0.016385,0.01638 l 0.00168,0.0017 c 0.00361,0.0013 0.00713,0.0029 0.011468,0.0065 0.022366,0.01871 0.047325,0.03318 0.070455,0.0508 0.00176,0.0021 0.00327,0.0044 0.00495,0.0065 l 0.00168,0.0017 c 0.040009,0.02827 0.071277,0.0506 0.1065072,0.08193 l 0.00168,0.0017 c 9.229e-4,8.39e-4 0.00235,4.63e-4 0.00327,0.0017 0.00193,0.0011 0.00319,0.0023 0.00495,0.0033 a 0.66635211,0.66635211 0 0 1 1.1584632,0.362123 v 0.665256 H 9.6854021 c -5.126e-4,0.0012 -0.00101,0.002 -0.00168,0.0033 -9.228e-4,0.0018 -0.00193,0.0016 -0.00327,0.0017 h -0.00168 c -0.00302,-3.25e-4 -0.00705,-0.0028 -0.011468,-0.0049 h -0.034413 c 2.693e-4,0.0013 0.00117,0.0018 0.00168,0.0033 -0.014463,3.64e-4 -0.028155,-6.17e-4 -0.042602,0 -0.00612,2.51e-4 -0.014799,0.0054 -0.019665,0.0017 -0.00117,-8.38e-4 -0.00109,-0.0023 -0.00168,-0.0033 h -0.00822 c -7.164e-4,0.002 -8.389e-4,0.0043 -0.00327,0.0049 l -0.00168,-0.0017 c -4.547e-4,-3.51e-4 1.191e-4,-0.0024 0,-0.0033 h -0.00495 c 2.718e-4,10e-4 0.00151,0.0023 0.00168,0.0033 -0.00285,-1.1e-5 -0.00529,1.6e-5 -0.00822,0 -0.046687,0.0019 -0.094263,0.0055 -0.1409165,0.0082 -0.00772,4.36e-4 -0.015344,1.24e-4 -0.022937,0 -0.00378,-6.1e-5 -0.00763,6.2e-5 -0.011468,0 -0.00378,-1.77e-4 -0.00638,1.91e-4 -0.00983,0 -0.019631,8.2e-5 -0.039355,-4.1e-5 -0.058986,0 -0.024539,-9.5e-5 -0.049196,2.72e-4 -0.073735,0 -0.026653,-2.78e-4 -0.053449,-0.0014 -0.080287,-0.0017 -0.00604,-4.8e-5 -0.012005,-1.4e-4 -0.018021,0 -0.00545,-9e-6 -0.010915,5.8e-5 -0.016385,0 -0.00983,6.1e-4 -0.019732,0.0018 -0.029497,0.0033 -0.025663,0.0023 -0.051578,0.0049 -0.077015,0.0065 -7.139e-4,4.51e-4 -0.00243,-5.26e-4 -0.00327,0 -0.00134,8.39e-4 -0.00151,0.0023 -0.00327,0.0033 -0.0078,0.0023 -0.014883,0.0053 -0.022937,0.0065 -0.00671,0.0011 -0.012869,0 -0.019665,0 h -0.021301 c -0.00159,0.0012 -0.00319,0.0023 -0.00495,0.0033 -0.00361,0.0022 -0.00763,0.0033 -0.011468,0.0049 -0.00193,8.15e-4 -0.00445,0.0011 -0.00654,0.0017 -0.00352,9.23e-4 -0.00638,0.0024 -0.00983,0.0033 -0.00277,7.55e-4 -0.00545,9.23e-4 -0.00822,0.0017 -0.00109,2.82e-4 -0.00218,-2.61e-4 -0.00327,0 v 0.0049 c -0.3598286,0.110615 -0.6668945,0.3982 -0.6668945,0.816004 v 1.599235 c 0,0.543743 0.5204016,0.866799 0.999523,0.866799 h 1.9989109 c 0.479108,0 0.999522,-0.323056 0.999522,-0.866799 v -1.599235 c 0,-0.417804 -0.305428,-0.705382 -0.665255,-0.816004 v -0.716327 a 1.3327038,1.3327038 0 0 0 -1.333789,-1.333789 z" />
</svg>
