<?xml version="1.0" encoding="UTF-8" standalone="no"?>
<svg
   xmlns:dc="http://purl.org/dc/elements/1.1/"
   xmlns:cc="http://creativecommons.org/ns#"
   xmlns:rdf="http://www.w3.org/1999/02/22-rdf-syntax-ns#"
   xmlns:svg="http://www.w3.org/2000/svg"
   xmlns="http://www.w3.org/2000/svg"
   xmlns:xlink="http://www.w3.org/1999/xlink"
   xmlns:sodipodi="http://sodipodi.sourceforge.net/DTD/sodipodi-0.dtd"
   xmlns:inkscape="http://www.inkscape.org/namespaces/inkscape"
   width="16"
   height="16"
   fill="currentColor"
   class="bi bi-file-earmark-music-fill"
   viewBox="0 0 16 16"
   version="1.1"
   id="svg4"
   sodipodi:docname="music-file-lock.svg"
   inkscape:version="1.0.2-2 (e86c870879, 2021-01-15)">
  <metadata
     id="metadata11">
    <rdf:RDF>
      <cc:Work
         rdf:about="">
        <dc:format>image/svg+xml</dc:format>
        <dc:type
           rdf:resource="http://purl.org/dc/dcmitype/StillImage" />
      </cc:Work>
    </rdf:RDF>
  </metadata>
  <defs
     id="defs8">
    <linearGradient
       inkscape:collect="always"
       xlink:href="#linearGradient931"
       id="linearGradient933"
       x1="-1.0458971"
       y1="-0.26703754"
       x2="16.155771"
       y2="15.488178"
       gradientUnits="userSpaceOnUse" />
    <linearGradient
       inkscape:collect="always"
       id="linearGradient931">
      <stop
         style="stop-color:#d88383;stop-opacity:1;"
         offset="0"
         id="stop927" />
      <stop
         style="stop-color:#d88383;stop-opacity:1"
         offset="1"
         id="stop929" />
    </linearGradient>
  </defs>
  <sodipodi:namedview
     id="namedview6"
     pagecolor="#ffffff"
     bordercolor="#666666"
     borderopacity="1.0"
     inkscape:pageshadow="2"
     inkscape:pageopacity="0.0"
     inkscape:pagecheckerboard="0"
     showgrid="false"
     inkscape:zoom="21.712841"
     inkscape:cx="0.22253129"
     inkscape:cy="9.7246175"
     inkscape:window-width="1920"
     inkscape:window-height="1013"
     inkscape:window-x="-9"
     inkscape:window-y="-9"
     inkscape:window-maximized="1"
     inkscape:current-layer="svg4"
     inkscape:document-rotation="0" />
  <path
     d="M 9.1994868,0 H 4.2892907 A 1.8553547,1.8553547 0 0 0 2.433936,1.8553546 V 12.987483 a 1.8553547,1.8553547 0 0 0 1.8553547,1.855355 h 7.4214183 a 1.8553547,1.8553547 0 0 0 1.855355,-1.855355 V 4.3665772 A 0.92767733,0.92767733 0 0 0 13.294255,3.7107093 L 9.8553547,0.27180946 A 0.92767733,0.92767733 0 0 0 9.1994868,0 Z M 9.391516,3.2468706 V 1.391516 l 2.783032,2.7830319 H 10.319193 A 0.92767733,0.92767733 0 0 1 9.391516,3.2468706 Z m 1.391516,2.9129068 V 7.7832128 L 8.9276773,8.2470514 v 3.3489156 c 0,0.4592 -0.2792308,0.819139 -0.6141224,1.041782 -0.3376745,0.225425 -0.7783212,0.349734 -1.2412322,0.349734 -0.4638387,0 -0.9035577,-0.124309 -1.2412323,-0.349734 C 5.4971266,12.415106 5.216968,12.055167 5.216968,11.595967 c 0,-0.4592 0.2792309,-0.819139 0.6141224,-1.041782 0.3376746,-0.225425 0.7783213,-0.349734 1.2412323,-0.349734 0.3302531,0 0.6493741,0.06308 0.9276773,0.181825 V 6.3916968 A 0.92767733,0.92767733 0 0 1 8.7022517,5.4918498 L 9.6299291,5.2599304 a 0.92767733,0.92767733 0 0 1 1.1531029,0.899847 z"
     id="path2"
     style="fill:url(#linearGradient933);fill-opacity:1;stroke-width:0.927677" />
  <path
     d="m 11.488364,12.092466 v 0.702992 c 0.3528,0.108462 0.653337,0.390043 0.653337,0.799688 v 1.568009 c 0,0.533123 -0.510256,0.849339 -0.980008,0.849339 H 9.2016812 c -0.4697507,0 -0.9800064,-0.316216 -0.9800064,-0.849339 v -1.568009 c 0,-0.409645 0.300534,-0.691233 0.6533354,-0.799688 v -0.702992 a 1.3066772,1.3066772 0 1 1 2.6133538,0 z m -1.9600148,0 v 0.653339 h 1.3066768 v -0.653339 a 0.65333877,0.65333877 0 0 0 -1.3066768,0 z"
     id="path2-4"
     style="fill:#000000;fill-opacity:1;stroke-width:0.653339" />
</svg>
