<?xml version="1.0" encoding="UTF-8" standalone="no"?>
<svg
   xmlns:dc="http://purl.org/dc/elements/1.1/"
   xmlns:cc="http://creativecommons.org/ns#"
   xmlns:rdf="http://www.w3.org/1999/02/22-rdf-syntax-ns#"
   xmlns:svg="http://www.w3.org/2000/svg"
   xmlns="http://www.w3.org/2000/svg"
   xmlns:xlink="http://www.w3.org/1999/xlink"
   xmlns:sodipodi="http://sodipodi.sourceforge.net/DTD/sodipodi-0.dtd"
   xmlns:inkscape="http://www.inkscape.org/namespaces/inkscape"
   width="16"
   height="16"
   fill="currentColor"
   class="bi bi-file-earmark-pdf-fill"
   viewBox="0 0 16 16"
   version="1.1"
   id="svg6"
   sodipodi:docname="pdf-file-lock.svg"
   inkscape:version="1.0.2-2 (e86c870879, 2021-01-15)">
  <metadata
     id="metadata8">
    <rdf:RDF>
      <cc:Work
         rdf:about="">
        <dc:format>image/svg+xml</dc:format>
        <dc:type
           rdf:resource="http://purl.org/dc/dcmitype/StillImage" />
      </cc:Work>
    </rdf:RDF>
  </metadata>
  <defs
     id="defs10">
    <linearGradient
       inkscape:collect="always"
       id="linearGradient837">
      <stop
         style="stop-color:#5ccc7d;stop-opacity:1;"
         offset="0"
         id="stop833" />
      <stop
         style="stop-color:#56ad6f;stop-opacity:1"
         offset="1"
         id="stop835" />
    </linearGradient>
    <linearGradient
       inkscape:collect="always"
       xlink:href="#linearGradient837"
       id="linearGradient839"
       x1="1.302371"
       y1="-0.92833793"
       x2="15.763462"
       y2="17.599424"
       gradientUnits="userSpaceOnUse" />
  </defs>
  <sodipodi:namedview
     id="namedview8"
     pagecolor="#ffffff"
     bordercolor="#666666"
     borderopacity="1.0"
     inkscape:pageshadow="2"
     inkscape:pageopacity="0.0"
     inkscape:pagecheckerboard="0"
     showgrid="false"
     inkscape:zoom="30.706594"
     inkscape:cx="3.6934097"
     inkscape:cy="7.5596438"
     inkscape:window-width="1920"
     inkscape:window-height="1013"
     inkscape:window-x="-9"
     inkscape:window-y="-9"
     inkscape:window-maximized="1"
     inkscape:current-layer="svg6"
     inkscape:document-rotation="0" />
  <path
     d="m 5.7021433,11.547717 c 0.1298748,-0.07607 0.2718094,-0.150284 0.4258038,-0.220788 A 7.308242,7.308242 0 0 1 5.7104924,11.889102 C 5.4507427,12.201729 5.248509,12.367783 5.1214172,12.419733 a 0.24676217,0.24676217 0 0 1 -0.032469,0.01113 0.26160501,0.26160501 0 0 1 -0.02412,-0.04082 c -0.05195,-0.102045 -0.050095,-0.200379 0.037107,-0.333964 0.098334,-0.153067 0.2959291,-0.328398 0.6002073,-0.508367 z m 2.2774478,-1.527885 c -0.1103936,0.02319 -0.2198595,0.04638 -0.3302531,0.07236 A 19.61852,19.61852 0 0 0 8.1131766,9.1181294 11.173873,11.173873 0 0 0 8.5862921,9.9140768 c -0.201306,0.02969 -0.4044673,0.06494 -0.606701,0.1057552 z m 2.3423849,0.871089 A 3.6003157,3.6003157 0 0 1 9.9184367,10.510573 c 0.2115103,0.0046 0.4026123,0.02041 0.5677383,0.0501 0.294074,0.05288 0.432298,0.136368 0.480537,0.193884 a 0.08812935,0.08812935 0 0 1 0.02412,0.05937 0.40446732,0.40446732 0 0 1 -0.05566,0.185535 0.28479694,0.28479694 0 0 1 -0.0872,0.115032 0.09926147,0.09926147 0 0 1 -0.06401,0.01392 c -0.08349,-0.0028 -0.239341,-0.06123 -0.461984,-0.237485 z M 8.2578943,6.4881642 C 8.2207872,6.7145174 8.1577051,6.9742671 8.0723588,7.2572087 A 4.5085118,4.5085118 0 0 1 7.9897955,6.9362323 C 7.9192921,6.6087622 7.9090876,6.3517956 7.9471224,6.1736815 7.9823741,6.0094826 8.0491669,5.9436176 8.1289471,5.9111489 a 0.47960918,0.47960918 0 0 1 0.1345133,-0.037107 c 0.01206,0.02783 0.025975,0.085346 0.029686,0.1836801 0.00464,0.1131766 -0.00649,0.2569666 -0.035252,0.4313699 z"
     id="path2"
     style="fill:#5ccc7d;fill-opacity:1;stroke-width:0.927677" />
  <path
     fill-rule="evenodd"
     d="M 4.2892907,0.02225313 H 9.1994868 A 0.92767733,0.92767733 0 0 1 9.8553547,0.29406259 L 13.294255,3.7329625 a 0.92767733,0.92767733 0 0 1 0.271809,0.6558679 v 8.6209056 a 1.8553547,1.8553547 0 0 1 -1.855355,1.855355 H 4.2892907 A 1.8553547,1.8553547 0 0 1 2.433936,13.009736 V 1.8776078 A 1.8553547,1.8553547 0 0 1 4.2892907,0.02225313 Z M 9.391516,1.4137692 v 1.8553546 a 0.92767733,0.92767733 0 0 0 0.927677,0.9276773 h 1.855355 z M 4.4423574,12.701747 c 0.083491,0.166982 0.2133658,0.318193 0.4063227,0.388697 0.1920292,0.06958 0.3822031,0.03711 0.5380529,-0.02783 0.2950014,-0.120598 0.5890751,-0.404468 0.8590292,-0.729155 0.3089165,-0.371998 0.6336036,-0.859957 0.9471585,-1.400793 a 10.808369,10.808369 0 0 1 1.8525717,-0.376637 c 0.2783031,0.355301 0.5658831,0.661434 0.8441863,0.881294 0.2597493,0.204089 0.5593893,0.373854 0.8664503,0.386841 a 0.79409179,0.79409179 0 0 0 0.473116,-0.128019 c 0.14379,-0.0937 0.250473,-0.229136 0.328398,-0.385914 0.08349,-0.167909 0.134513,-0.343241 0.128019,-0.522282 A 0.78295967,0.78295967 0 0 0 11.500127,10.307412 C 11.290471,10.056939 10.947231,9.9363408 10.609556,9.8760418 A 5.3434214,5.3434214 0 0 0 9.3711071,9.8296578 10.161777,10.161777 0 0 1 8.4619833,8.2655939 C 8.6939026,7.6533269 8.8673783,7.0744562 8.9443755,6.6013408 8.9777719,6.3991071 8.9953978,6.2061502 8.988904,6.0317469 A 1.1484645,1.1484645 0 0 0 8.871089,5.5326565 0.64937413,0.64937413 0 0 0 8.4285869,5.1940543 c -0.1873908,-0.03989 -0.3803477,0 -0.557534,0.071431 -0.3497344,0.1391516 -0.5343422,0.4360084 -0.603918,0.7634785 -0.06772,0.3154103 -0.037107,0.6827705 0.042673,1.0538414 0.081636,0.376637 0.2207872,0.7866704 0.3989012,1.2013422 A 18.27246,18.27246 0 0 1 6.723516,10.350085 7.1078637,7.1078637 0 0 0 5.3486982,10.948437 c -0.3432406,0.204089 -0.6484465,0.445285 -0.8321266,0.730082 -0.1948122,0.302423 -0.2551112,0.662362 -0.074214,1.023228 z"
     id="path4"
     style="fill:url(#linearGradient839);fill-opacity:1;stroke-width:0.927677" />
  <path
     d="m 11.488364,12.092466 v 0.702992 c 0.3528,0.108462 0.653337,0.390043 0.653337,0.799688 v 1.568009 c 0,0.533123 -0.510256,0.849339 -0.980008,0.849339 H 9.2016812 c -0.4697507,0 -0.9800064,-0.316216 -0.9800064,-0.849339 v -1.568009 c 0,-0.409645 0.300534,-0.691233 0.6533354,-0.799688 v -0.702992 a 1.3066772,1.3066772 0 1 1 2.6133538,0 z m -1.9600148,0 v 0.653339 h 1.3066768 v -0.653339 a 0.65333877,0.65333877 0 0 0 -1.3066768,0 z"
     id="path2-4"
     style="fill:#000000;fill-opacity:1;stroke-width:0.653339" />
</svg>
