<?xml version="1.0" encoding="UTF-8" standalone="no"?>
<svg
   xmlns:dc="http://purl.org/dc/elements/1.1/"
   xmlns:cc="http://creativecommons.org/ns#"
   xmlns:rdf="http://www.w3.org/1999/02/22-rdf-syntax-ns#"
   xmlns:svg="http://www.w3.org/2000/svg"
   xmlns="http://www.w3.org/2000/svg"
   xmlns:xlink="http://www.w3.org/1999/xlink"
   xmlns:sodipodi="http://sodipodi.sourceforge.net/DTD/sodipodi-0.dtd"
   xmlns:inkscape="http://www.inkscape.org/namespaces/inkscape"
   width="16"
   height="16"
   fill="currentColor"
   class="bi bi-file-earmark-pdf-fill"
   viewBox="0 0 16 16"
   version="1.1"
   id="svg6"
   sodipodi:docname="pdf-file-unlock.svg"
   inkscape:version="1.0.2-2 (e86c870879, 2021-01-15)">
  <metadata
     id="metadata8">
    <rdf:RDF>
      <cc:Work
         rdf:about="">
        <dc:format>image/svg+xml</dc:format>
        <dc:type
           rdf:resource="http://purl.org/dc/dcmitype/StillImage" />
      </cc:Work>
    </rdf:RDF>
  </metadata>
  <defs
     id="defs10">
    <linearGradient
       inkscape:collect="always"
       id="linearGradient837">
      <stop
         style="stop-color:#5ccc7d;stop-opacity:1;"
         offset="0"
         id="stop833" />
      <stop
         style="stop-color:#56ad6f;stop-opacity:1"
         offset="1"
         id="stop835" />
    </linearGradient>
    <linearGradient
       inkscape:collect="always"
       xlink:href="#linearGradient837"
       id="linearGradient839"
       x1="1.4003507"
       y1="-1.4980496"
       x2="16.087749"
       y2="19.018717"
       gradientUnits="userSpaceOnUse" />
  </defs>
  <sodipodi:namedview
     id="namedview8"
     pagecolor="#ffffff"
     bordercolor="#666666"
     borderopacity="1.0"
     inkscape:pageshadow="2"
     inkscape:pageopacity="0.0"
     inkscape:pagecheckerboard="0"
     showgrid="false"
     inkscape:zoom="30.706594"
     inkscape:cx="5.8850167"
     inkscape:cy="11.049589"
     inkscape:window-width="1920"
     inkscape:window-height="1013"
     inkscape:window-x="-9"
     inkscape:window-y="-9"
     inkscape:window-maximized="1"
     inkscape:current-layer="svg6"
     inkscape:document-rotation="0" />
  <path
     d="m 5.7021433,11.547717 c 0.1298748,-0.07607 0.2718094,-0.150284 0.4258038,-0.220788 A 7.308242,7.308242 0 0 1 5.7104924,11.889102 C 5.4507427,12.201729 5.248509,12.367783 5.1214172,12.419733 a 0.24676217,0.24676217 0 0 1 -0.032469,0.01113 0.26160501,0.26160501 0 0 1 -0.02412,-0.04082 c -0.05195,-0.102045 -0.050095,-0.200379 0.037107,-0.333964 0.098334,-0.153067 0.2959291,-0.328398 0.6002073,-0.508367 z m 2.2774478,-1.527885 c -0.1103936,0.02319 -0.2198595,0.04638 -0.3302531,0.07236 A 19.61852,19.61852 0 0 0 8.1131766,9.1181294 11.173873,11.173873 0 0 0 8.5862921,9.9140768 c -0.201306,0.02969 -0.4044673,0.06494 -0.606701,0.1057552 z m 2.3423849,0.871089 A 3.6003157,3.6003157 0 0 1 9.9184367,10.510573 c 0.2115103,0.0046 0.4026123,0.02041 0.5677383,0.0501 0.294074,0.05288 0.432298,0.136368 0.480537,0.193884 a 0.08812935,0.08812935 0 0 1 0.02412,0.05937 0.40446732,0.40446732 0 0 1 -0.05566,0.185535 0.28479694,0.28479694 0 0 1 -0.0872,0.115032 0.09926147,0.09926147 0 0 1 -0.06401,0.01392 c -0.08349,-0.0028 -0.239341,-0.06123 -0.461984,-0.237485 z M 8.2578943,6.4881642 C 8.2207872,6.7145174 8.1577051,6.9742671 8.0723588,7.2572087 A 4.5085118,4.5085118 0 0 1 7.9897955,6.9362323 C 7.9192921,6.6087622 7.9090876,6.3517956 7.9471224,6.1736815 7.9823741,6.0094826 8.0491669,5.9436176 8.1289471,5.9111489 a 0.47960918,0.47960918 0 0 1 0.1345133,-0.037107 c 0.01206,0.02783 0.025975,0.085346 0.029686,0.1836801 0.00464,0.1131766 -0.00649,0.2569666 -0.035252,0.4313699 z"
     id="path2"
     style="fill:#5ccc7d;fill-opacity:1;stroke-width:0.927677" />
  <path
     fill-rule="evenodd"
     d="M 4.2892907,0.02225313 H 9.1994868 A 0.92767733,0.92767733 0 0 1 9.8553547,0.29406259 L 13.294255,3.7329625 a 0.92767733,0.92767733 0 0 1 0.271809,0.6558679 v 8.6209056 a 1.8553547,1.8553547 0 0 1 -1.855355,1.855355 H 4.2892907 A 1.8553547,1.8553547 0 0 1 2.433936,13.009736 V 1.8776078 A 1.8553547,1.8553547 0 0 1 4.2892907,0.02225313 Z M 9.391516,1.4137692 v 1.8553546 a 0.92767733,0.92767733 0 0 0 0.927677,0.9276773 h 1.855355 z M 4.4423574,12.701747 c 0.083491,0.166982 0.2133658,0.318193 0.4063227,0.388697 0.1920292,0.06958 0.3822031,0.03711 0.5380529,-0.02783 0.2950014,-0.120598 0.5890751,-0.404468 0.8590292,-0.729155 0.3089165,-0.371998 0.6336036,-0.859957 0.9471585,-1.400793 a 10.808369,10.808369 0 0 1 1.8525717,-0.376637 c 0.2783031,0.355301 0.5658831,0.661434 0.8441863,0.881294 0.2597493,0.204089 0.5593893,0.373854 0.8664503,0.386841 a 0.79409179,0.79409179 0 0 0 0.473116,-0.128019 c 0.14379,-0.0937 0.250473,-0.229136 0.328398,-0.385914 0.08349,-0.167909 0.134513,-0.343241 0.128019,-0.522282 A 0.78295967,0.78295967 0 0 0 11.500127,10.307412 C 11.290471,10.056939 10.947231,9.9363408 10.609556,9.8760418 A 5.3434214,5.3434214 0 0 0 9.3711071,9.8296578 10.161777,10.161777 0 0 1 8.4619833,8.2655939 C 8.6939026,7.6533269 8.8673783,7.0744562 8.9443755,6.6013408 8.9777719,6.3991071 8.9953978,6.2061502 8.988904,6.0317469 A 1.1484645,1.1484645 0 0 0 8.871089,5.5326565 0.64937413,0.64937413 0 0 0 8.4285869,5.1940543 c -0.1873908,-0.03989 -0.3803477,0 -0.557534,0.071431 -0.3497344,0.1391516 -0.5343422,0.4360084 -0.603918,0.7634785 -0.06772,0.3154103 -0.037107,0.6827705 0.042673,1.0538414 0.081636,0.376637 0.2207872,0.7866704 0.3989012,1.2013422 A 18.27246,18.27246 0 0 1 6.723516,10.350085 7.1078637,7.1078637 0 0 0 5.3486982,10.948437 c -0.3432406,0.204089 -0.6484465,0.445285 -0.8321266,0.730082 -0.1948122,0.302423 -0.2551112,0.662362 -0.074214,1.023228 z"
     id="path4"
     style="fill:url(#linearGradient839);fill-opacity:1;stroke-width:0.927677" />
  <path
     id="path2-4"
     style="fill:#000000;fill-opacity:1;stroke-width:0.666353"
     d="m 10.224166,10.704516 a 1.3327038,1.3327038 0 0 0 -1.0585111,0.562026 c 0.00176,0.0019 0.00344,0.0039 0.00495,0.0065 0,0 0.00168,0.0017 0.00168,0.0017 0.00453,5.96e-4 0.00951,0.0026 0.014749,0.0065 0.019086,0.01434 0.036268,0.03043 0.05407,0.04588 3.155e-4,2.74e-4 0.00134,-2.75e-4 0.00168,0 0.021141,0.01089 0.041477,0.02493 0.06063,0.03933 0.00101,5.4e-4 0.00235,0.0028 0.00327,0.0033 0.00159,0.0012 0.00336,0.0021 0.00495,0.0033 0.00822,0.0047 0.01771,0.008 0.034413,0.01802 0.05636,0.03524 0.1118916,0.07135 0.1638557,0.113061 0.00596,0.0048 0.010931,0.0111 0.016385,0.01638 l 0.00168,0.0017 c 0.00361,0.0013 0.00713,0.0029 0.011468,0.0065 0.022366,0.01871 0.047325,0.03318 0.070455,0.0508 0.00176,0.0021 0.00327,0.0044 0.00495,0.0065 l 0.00168,0.0017 c 0.040009,0.02827 0.071277,0.0506 0.1065072,0.08193 l 0.00168,0.0017 c 9.229e-4,8.39e-4 0.00235,4.63e-4 0.00327,0.0017 0.00193,0.0011 0.00319,0.0023 0.00495,0.0033 a 0.66635211,0.66635211 0 0 1 1.1584632,0.362123 v 0.665256 H 9.6854021 c -5.126e-4,0.0012 -0.00101,0.002 -0.00168,0.0033 -9.228e-4,0.0018 -0.00193,0.0016 -0.00327,0.0017 h -0.00168 c -0.00302,-3.25e-4 -0.00705,-0.0028 -0.011468,-0.0049 h -0.034413 c 2.693e-4,0.0013 0.00117,0.0018 0.00168,0.0033 -0.014463,3.64e-4 -0.028155,-6.17e-4 -0.042602,0 -0.00612,2.51e-4 -0.014799,0.0054 -0.019665,0.0017 -0.00117,-8.38e-4 -0.00109,-0.0023 -0.00168,-0.0033 h -0.00822 c -7.164e-4,0.002 -8.389e-4,0.0043 -0.00327,0.0049 l -0.00168,-0.0017 c -4.547e-4,-3.51e-4 1.191e-4,-0.0024 0,-0.0033 h -0.00495 c 2.718e-4,10e-4 0.00151,0.0023 0.00168,0.0033 -0.00285,-1.1e-5 -0.00529,1.6e-5 -0.00822,0 -0.046687,0.0019 -0.094263,0.0055 -0.1409165,0.0082 -0.00772,4.36e-4 -0.015344,1.24e-4 -0.022937,0 -0.00378,-6.1e-5 -0.00763,6.2e-5 -0.011468,0 -0.00378,-1.77e-4 -0.00638,1.91e-4 -0.00983,0 -0.019631,8.2e-5 -0.039355,-4.1e-5 -0.058986,0 -0.024539,-9.5e-5 -0.049196,2.72e-4 -0.073735,0 -0.026653,-2.78e-4 -0.053449,-0.0014 -0.080287,-0.0017 -0.00604,-4.8e-5 -0.012005,-1.4e-4 -0.018021,0 -0.00545,-9e-6 -0.010915,5.8e-5 -0.016385,0 -0.00983,6.1e-4 -0.019732,0.0018 -0.029497,0.0033 -0.025663,0.0023 -0.051578,0.0049 -0.077015,0.0065 -7.139e-4,4.51e-4 -0.00243,-5.26e-4 -0.00327,0 -0.00134,8.39e-4 -0.00151,0.0023 -0.00327,0.0033 -0.0078,0.0023 -0.014883,0.0053 -0.022937,0.0065 -0.00671,0.0011 -0.012869,0 -0.019665,0 h -0.021301 c -0.00159,0.0012 -0.00319,0.0023 -0.00495,0.0033 -0.00361,0.0022 -0.00763,0.0033 -0.011468,0.0049 -0.00193,8.15e-4 -0.00445,0.0011 -0.00654,0.0017 -0.00352,9.23e-4 -0.00638,0.0024 -0.00983,0.0033 -0.00277,7.55e-4 -0.00545,9.23e-4 -0.00822,0.0017 -0.00109,2.82e-4 -0.00218,-2.61e-4 -0.00327,0 v 0.0049 c -0.3598286,0.110615 -0.6668945,0.3982 -0.6668945,0.816004 v 1.599235 c 0,0.543743 0.5204016,0.866799 0.999523,0.866799 h 1.9989109 c 0.479108,0 0.999522,-0.323056 0.999522,-0.866799 v -1.599235 c 0,-0.417804 -0.305428,-0.705382 -0.665255,-0.816004 v -0.716327 a 1.3327038,1.3327038 0 0 0 -1.333789,-1.333789 z" />
</svg>
