<?xml version="1.0" encoding="UTF-8" standalone="no"?>
<svg
   width="16"
   height="16"
   fill="currentColor"
   class="bi bi-shield-lock-fill"
   viewBox="0 0 16 16"
   version="1.1"
   id="svg4"
   sodipodi:docname="shield-lock-fill.svg"
   inkscape:version="1.1.2 (b8e25be833, 2022-02-05)"
   xmlns:inkscape="http://www.inkscape.org/namespaces/inkscape"
   xmlns:sodipodi="http://sodipodi.sourceforge.net/DTD/sodipodi-0.dtd"
   xmlns="http://www.w3.org/2000/svg"
   xmlns:svg="http://www.w3.org/2000/svg">
  <defs
     id="defs8" />
  <sodipodi:namedview
     id="namedview6"
     pagecolor="#ffffff"
     bordercolor="#666666"
     borderopacity="1.0"
     inkscape:pageshadow="2"
     inkscape:pageopacity="0.0"
     inkscape:pagecheckerboard="0"
     showgrid="false"
     inkscape:zoom="44.9375"
     inkscape:cx="7.9888734"
     inkscape:cy="7.9888734"
     inkscape:window-width="3840"
     inkscape:window-height="2480"
     inkscape:window-x="-11"
     inkscape:window-y="-11"
     inkscape:window-maximized="1"
     inkscape:current-layer="svg4" />
  <path
     fill-rule="evenodd"
     d="M8 0c-.69 0-1.843.265-2.928.56-1.11.3-2.229.655-2.887.87a1.54 1.54 0 0 0-1.044 1.262c-.596 4.477.787 7.795 2.465 9.99a11.777 11.777 0 0 0 2.517 2.453c.386.273.744.482 1.048.625.28.132.581.24.829.24s.548-.108.829-.24a7.159 7.159 0 0 0 1.048-.625 11.775 11.775 0 0 0 2.517-2.453c1.678-2.195 3.061-5.513 2.465-9.99a1.541 1.541 0 0 0-1.044-1.263 62.467 62.467 0 0 0-2.887-.87C9.843.266 8.69 0 8 0zm0 5a1.5 1.5 0 0 1 .5 2.915l.385 1.99a.5.5 0 0 1-.491.595h-.788a.5.5 0 0 1-.49-.595l.384-1.99A1.5 1.5 0 0 1 8 5z"
     id="path2"
     style="fill:#2d2f46;fill-opacity:1" />
</svg>
