<?xml version="1.0" encoding="UTF-8" standalone="no"?>
<svg
   width="16"
   height="16"
   fill="currentColor"
   class="bi bi-shield-lock-fill"
   viewBox="0 0 16 16"
   version="1.1"
   id="svg4"
   sodipodi:docname="shield-lock-fill-green.svg"
   inkscape:version="1.1.2 (b8e25be833, 2022-02-05)"
   xmlns:inkscape="http://www.inkscape.org/namespaces/inkscape"
   xmlns:sodipodi="http://sodipodi.sourceforge.net/DTD/sodipodi-0.dtd"
   xmlns="http://www.w3.org/2000/svg"
   xmlns:svg="http://www.w3.org/2000/svg">
  <defs
     id="defs8" />
  <sodipodi:namedview
     id="namedview6"
     pagecolor="#ffffff"
     bordercolor="#666666"
     borderopacity="1.0"
     inkscape:pageshadow="2"
     inkscape:pageopacity="0.0"
     inkscape:pagecheckerboard="0"
     showgrid="false"
     inkscape:zoom="44.9375"
     inkscape:cx="7.9888734"
     inkscape:cy="7.9777469"
     inkscape:window-width="1920"
     inkscape:window-height="1228"
     inkscape:window-x="-6"
     inkscape:window-y="-6"
     inkscape:window-maximized="1"
     inkscape:current-layer="svg4" />
  <path
     fill-rule="evenodd"
     d="M8 0c-.69 0-1.843.265-2.928.56-1.11.3-2.229.655-2.887.87a1.54 1.54 0 0 0-1.044 1.262c-.596 4.477.787 7.795 2.465 9.99a11.777 11.777 0 0 0 2.517 2.453c.386.273.744.482 1.048.625.28.132.581.24.829.24s.548-.108.829-.24a7.159 7.159 0 0 0 1.048-.625 11.775 11.775 0 0 0 2.517-2.453c1.678-2.195 3.061-5.513 2.465-9.99a1.541 1.541 0 0 0-1.044-1.263 62.467 62.467 0 0 0-2.887-.87C9.843.266 8.69 0 8 0zm0 5a1.5 1.5 0 0 1 .5 2.915l.385 1.99a.5.5 0 0 1-.491.595h-.788a.5.5 0 0 1-.49-.595l.384-1.99A1.5 1.5 0 0 1 8 5z"
     id="path2"
     style="fill:#76c2af;fill-opacity:1" />
  <path
     style="fill:#000000;stroke:#000000;stroke-width:0.1;stroke-linecap:round;paint-order:fill markers stroke;stroke-miterlimit:4;stroke-dasharray:none;fill-opacity:1;stroke-opacity:1"
     d="M 7.4464482,10.460425 C 7.2728401,10.396999 7.1225104,10.193212 7.1214901,10.019911 7.1212213,9.9742558 7.2061196,9.497059 7.310153,8.9594742 7.4141864,8.4218891 7.4986983,7.9635549 7.4979572,7.9409538 7.4970072,7.9119802 7.4428625,7.8740646 7.3143688,7.8123934 7.0571111,7.6889213 6.8091249,7.4403394 6.6798579,7.1763584 6.5557362,6.9228848 6.5183571,6.7660204 6.518192,6.4979138 6.5179405,6.0895339 6.6640421,5.738416 6.9531238,5.4526661 7.2425756,5.1665505 7.5286071,5.0415029 7.9332406,5.0241775 8.2236247,5.011744 8.4085457,5.0477017 8.6447259,5.1625252 9.0335484,5.3515585 9.3181539,5.6926464 9.434171,6.1086424 9.4915115,6.3142452 9.4973946,6.6576171 9.4469408,6.8539638 9.342177,7.2616632 9.0397027,7.642455 8.6856312,7.8123934 8.5575067,7.8738875 8.5029901,7.9120191 8.5020428,7.9408045 c -7.41e-4,0.022519 0.083771,0.4791741 0.1878042,1.0147894 0.1040334,0.535615 0.1889317,1.0128788 0.1886629,1.0605861 -9.057e-4,0.160879 -0.1170875,0.340325 -0.2772129,0.428167 -0.093835,0.05148 -1.0225655,0.06441 -1.1548488,0.01608 z"
     id="path895" />
</svg>
