<?xml version="1.0" encoding="UTF-8" standalone="no"?>
<svg
   xmlns:dc="http://purl.org/dc/elements/1.1/"
   xmlns:cc="http://creativecommons.org/ns#"
   xmlns:rdf="http://www.w3.org/1999/02/22-rdf-syntax-ns#"
   xmlns:svg="http://www.w3.org/2000/svg"
   xmlns="http://www.w3.org/2000/svg"
   xmlns:xlink="http://www.w3.org/1999/xlink"
   xmlns:sodipodi="http://sodipodi.sourceforge.net/DTD/sodipodi-0.dtd"
   xmlns:inkscape="http://www.inkscape.org/namespaces/inkscape"
   width="16"
   height="16"
   fill="currentColor"
   class="bi bi-file-earmark-richtext-fill"
   viewBox="0 0 16 16"
   version="1.1"
   id="svg4"
   sodipodi:docname="text-file-lock.svg"
   inkscape:version="1.0.2-2 (e86c870879, 2021-01-15)">
  <metadata
     id="metadata11">
    <rdf:RDF>
      <cc:Work
         rdf:about="">
        <dc:format>image/svg+xml</dc:format>
        <dc:type
           rdf:resource="http://purl.org/dc/dcmitype/StillImage" />
      </cc:Work>
    </rdf:RDF>
  </metadata>
  <defs
     id="defs8">
    <linearGradient
       inkscape:collect="always"
       id="linearGradient843">
      <stop
         style="stop-color:#8173b7;stop-opacity:1;"
         offset="0"
         id="stop839" />
      <stop
         style="stop-color:#605296;stop-opacity:1"
         offset="1"
         id="stop841" />
    </linearGradient>
    <linearGradient
       inkscape:collect="always"
       xlink:href="#linearGradient843"
       id="linearGradient845"
       x1="1.5727495"
       y1="-1.286795"
       x2="17.01429"
       y2="18.253426"
       gradientUnits="userSpaceOnUse" />
  </defs>
  <sodipodi:namedview
     id="namedview6"
     pagecolor="#ffffff"
     bordercolor="#666666"
     borderopacity="1.0"
     inkscape:pageshadow="2"
     inkscape:pageopacity="0.0"
     inkscape:pagecheckerboard="0"
     showgrid="false"
     inkscape:zoom="20.982363"
     inkscape:cx="13.58643"
     inkscape:cy="12.458066"
     inkscape:window-width="1920"
     inkscape:window-height="1013"
     inkscape:window-x="-9"
     inkscape:window-y="-9"
     inkscape:window-maximized="1"
     inkscape:current-layer="svg4"
     inkscape:document-rotation="0" />
  <path
     d="M 9.2114757,0.01483542 H 4.2522021 A 1.8738989,1.8738989 0 0 0 2.3783032,1.8887344 V 13.132128 a 1.8738989,1.8738989 0 0 0 1.8738989,1.873899 h 7.4955959 a 1.8738989,1.8738989 0 0 0 1.873899,-1.873899 V 4.4250566 A 0.93694947,0.93694947 0 0 0 13.347171,3.7626333 L 9.8738989,0.28936161 A 0.93694947,0.93694947 0 0 0 9.2114757,0.01483542 Z M 9.4054242,3.2941586 V 1.4202597 L 12.216273,4.2311081 H 10.342374 A 0.93694947,0.93694947 0 0 1 9.4054242,3.2941586 Z m -2.3423737,2.576611 a 0.7027121,0.7027121 0 1 1 -1.4054242,0 0.7027121,0.7027121 0 0 1 1.4054242,0 z M 6.256337,7.3155457 7.5024798,8.1456829 9.2395841,6.4076417 A 0.23423737,0.23423737 0 0 1 9.5103625,6.3636051 L 11.279323,7.2761938 V 8.9158554 A 0.46847473,0.46847473 0 0 1 10.810848,9.3843301 H 5.1891516 A 0.46847473,0.46847473 0 0 1 4.7206769,8.9158554 V 8.4473807 c 0,0 1.4429021,-1.1936737 1.5356601,-1.131835 z M 5.1891516,10.321279 h 5.6216964 a 0.468475,0.468475 0 0 1 0,0.93695 H 5.1891516 a 0.468475,0.468475 0 0 1 0,-0.93695 z m 0,1.873899 H 8 a 0.468475,0.468475 0 0 1 0,0.93695 H 5.1891516 a 0.468475,0.468475 0 0 1 0,-0.93695 z"
     id="path2"
     style="fill:url(#linearGradient845);fill-opacity:1;stroke-width:0.936949" />
  <path
     d="m 11.488364,12.092466 v 0.702992 c 0.3528,0.108462 0.653337,0.390043 0.653337,0.799688 v 1.568009 c 0,0.533123 -0.510256,0.849339 -0.980008,0.849339 H 9.2016812 c -0.4697507,0 -0.9800064,-0.316216 -0.9800064,-0.849339 v -1.568009 c 0,-0.409645 0.300534,-0.691233 0.6533354,-0.799688 v -0.702992 a 1.3066772,1.3066772 0 1 1 2.6133538,0 z m -1.9600148,0 v 0.653339 h 1.3066768 v -0.653339 a 0.65333877,0.65333877 0 0 0 -1.3066768,0 z"
     id="path2-4"
     style="fill:#000000;fill-opacity:1;stroke-width:0.653339" />
</svg>
