<?xml version="1.0" encoding="UTF-8" standalone="no"?>
<svg
   width="16"
   height="16"
   fill="currentColor"
   class="bi bi-trash"
   viewBox="0 0 16 16"
   version="1.1"
   id="svg6"
   sodipodi:docname="trash.svg"
   inkscape:version="1.1.2 (b8e25be833, 2022-02-05)"
   xmlns:inkscape="http://www.inkscape.org/namespaces/inkscape"
   xmlns:sodipodi="http://sodipodi.sourceforge.net/DTD/sodipodi-0.dtd"
   xmlns="http://www.w3.org/2000/svg"
   xmlns:svg="http://www.w3.org/2000/svg">
  <defs
     id="defs10" />
  <sodipodi:namedview
     id="namedview8"
     pagecolor="#ffffff"
     bordercolor="#666666"
     borderopacity="1.0"
     inkscape:pageshadow="2"
     inkscape:pageopacity="0.0"
     inkscape:pagecheckerboard="0"
     showgrid="false"
     inkscape:zoom="90.509668"
     inkscape:cx="2.5466893"
     inkscape:cy="10.584505"
     inkscape:window-width="3840"
     inkscape:window-height="2468"
     inkscape:window-x="-12"
     inkscape:window-y="-12"
     inkscape:window-maximized="1"
     inkscape:current-layer="svg6" />
  <path
     fill-rule="evenodd"
     d="M14.5 3a1 1 0 0 1-1 1H13v9a2 2 0 0 1-2 2H5a2 2 0 0 1-2-2V4h-.5a1 1 0 0 1-1-1V2a1 1 0 0 1 1-1H6a1 1 0 0 1 1-1h2a1 1 0 0 1 1 1h3.5a1 1 0 0 1 1 1v1zM4.118 4 4 4.059V13a1 1 0 0 0 1 1h6a1 1 0 0 0 1-1V4.059L11.882 4H4.118zM2.5 3V2h11v1h-11z"
     id="path4"
     style="fill:#2d2f46;fill-opacity:1" />
  <path
     style="fill:#2d2f46;stroke:#000000;stroke-width:0.5;stroke-linecap:round;paint-order:fill markers stroke;stroke-miterlimit:4;stroke-dasharray:none;fill-opacity:1;stroke-opacity:1"
     d="M 2.5,2.5 V 2.0078125 H 8 13.5 V 2.5 2.9921875 H 8 2.5 Z"
     id="path898" />
  <path
     style="fill:#2d2f46;fill-opacity:1;stroke:#000000;stroke-width:0.00331456;stroke-linecap:round;stroke-miterlimit:4;stroke-dasharray:none;stroke-opacity:1;paint-order:fill markers stroke"
     d="M 4.823945,14.985733 C 4.3365134,14.942771 3.8714595,14.712764 3.5355412,14.348516 3.4040187,14.205901 3.3140185,14.075019 3.2225256,13.893316 3.1051965,13.660302 3.042148,13.447483 3.0168543,13.199076 3.0088904,13.120864 3.0052038,11.646706 3.0052038,8.5403238 V 3.9959892 L 2.6709854,3.9913329 C 2.3678677,3.9871099 2.3285419,3.9843887 2.2483786,3.9620907 1.8905844,3.8625673 1.622813,3.5844788 1.5275672,3.2135068 1.5101149,3.145532 1.5081262,3.0728 1.5081262,2.5024951 c 0,-0.622008 5.182e-4,-0.6373245 0.024787,-0.7325334 0.095508,-0.3746933 0.3767129,-0.649406 0.7621834,-0.7445881 0.068057,-0.016805 0.239268,-0.018827 1.8950637,-0.022379 L 6.0104078,0.9990886 V 0.9394462 c 0,-0.13851825 0.064963,-0.33689992 0.1559798,-0.47632322 0.1346655,-0.20628704 0.3198217,-0.3432061 0.57011,-0.42158437 L 6.8335241,0.01115457 7.949427,0.00795107 c 0.7605938,-0.00218348 1.1404977,6.0169e-4 1.1931468,0.00874727 0.2164363,0.03348587 0.3985091,0.12733472 0.5580474,0.28764371 0.1800625,0.18093243 0.2604008,0.35684498 0.293516,0.6426968 l 0.00604,0.0521068 1.814102,0.003662 c 2.001365,0.00404 1.853569,-0.0013 2.048696,0.073954 0.287789,0.110983 0.515503,0.3680635 0.602287,0.6799573 0.02413,0.086719 0.0246,0.1005987 0.02475,0.7347281 1.55e-4,0.6318508 -3.98e-4,0.648497 -0.02439,0.7425645 -0.04655,0.1824982 -0.133206,0.3346247 -0.264595,0.4645085 -0.09491,0.093822 -0.162217,0.1420047 -0.274932,0.196813 -0.169832,0.082582 -0.221148,0.090812 -0.598786,0.096035 l -0.334219,0.00462 -1.1e-4,4.559316 c -1.11e-4,3.0527158 -0.0038,4.5921738 -0.01146,4.6587528 -0.05487,0.479899 -0.263802,0.898343 -0.615486,1.232662 -0.330272,0.313963 -0.753494,0.502308 -1.21455,0.540509 -0.164142,0.0136 -6.1724023,0.01218 -6.3275557,-0.0015 z m 6.357181,-0.997504 c 0.438397,-0.07951 0.766806,-0.43421 0.816753,-0.882134 0.0083,-0.07434 0.01189,-1.460398 0.01189,-4.5794067 V 4.0538944 l -0.06101,-0.029923 -0.06101,-0.029923 H 7.9985334 4.1093235 l -0.054875,0.027807 -0.054876,0.027807 v 4.5357067 c 0,4.1006149 0.00168,4.5438759 0.017548,4.6208679 0.08311,0.403339 0.4103671,0.717734 0.8183824,0.786216 0.029413,0.0049 1.450566,0.0094 3.1581184,0.0099 2.5729487,7.62e-4 3.1188317,-0.0017 3.1875047,-0.01412 z"
     id="path4104" />
  <path
     style="fill:#2d2f46;fill-opacity:1;stroke:#2d2f46;stroke-width:0.2;stroke-linecap:round;stroke-miterlimit:4;stroke-dasharray:none;stroke-opacity:1;paint-order:fill markers stroke"
     d="M 4.854598,13.981367 C 4.7171929,13.963439 4.5896935,13.915097 4.4620701,13.832537 4.2673197,13.706554 4.1255503,13.519611 4.0475036,13.285874 l -0.031358,-0.09391 -0.00293,-4.5655393 -0.00293,-4.5655392 0.055044,-0.027893 0.055044,-0.027893 h 3.8781613 3.8781621 l 0.06115,0.029993 0.06116,0.029993 -0.0029,4.5358173 -0.0029,4.5358172 -0.02924,0.105733 c -0.05395,0.195062 -0.148005,0.350093 -0.295581,0.487194 -0.154111,0.143172 -0.343333,0.230923 -0.543381,0.251992 -0.125828,0.01325 -6.1687523,0.01299 -6.2703915,-2.69e-4 z"
     id="path4143" />
  <path
     d="m 6.4823221,5.5662913 c 0.179842,0 0.3256327,0.2238576 0.3256327,0.5 v 5.9999997 c 0,0.666666 -0.6512654,0.666666 -0.6512654,0 V 6.0662913 c 0,-0.2761424 0.1457907,-0.5 0.3256327,-0.5 z m 3.5507099,1.890625 c -0.0054,-0.6666442 -0.6567078,-0.6666442 -0.6512658,0 l 0.031251,3.8281247 c 0.0054,0.666644 0.6567088,0.666644 0.6512658,0 z"
     id="path2-5"
     sodipodi:nodetypes="sssssssssss"
     style="fill:#2d2f46;stroke:#ffffff;stroke-width:0.7;stroke-miterlimit:4;stroke-dasharray:none;stroke-opacity:1;fill-opacity:1" />
</svg>
