<?xml version="1.0" encoding="UTF-8" standalone="no"?>
<svg
   width="16"
   height="16"
   fill="currentColor"
   class="bi bi-upload"
   viewBox="0 0 16 16"
   version="1.1"
   id="svg6"
   sodipodi:docname="upload.svg"
   inkscape:version="1.1.2 (b8e25be833, 2022-02-05)"
   xmlns:inkscape="http://www.inkscape.org/namespaces/inkscape"
   xmlns:sodipodi="http://sodipodi.sourceforge.net/DTD/sodipodi-0.dtd"
   xmlns="http://www.w3.org/2000/svg"
   xmlns:svg="http://www.w3.org/2000/svg"
   xmlns:rdf="http://www.w3.org/1999/02/22-rdf-syntax-ns#"
   xmlns:cc="http://creativecommons.org/ns#"
   xmlns:dc="http://purl.org/dc/elements/1.1/">
  <metadata
     id="metadata7">
    <rdf:RDF>
      <cc:Work
         rdf:about="">
        <dc:format>image/svg+xml</dc:format>
        <dc:type
           rdf:resource="http://purl.org/dc/dcmitype/StillImage" />
      </cc:Work>
    </rdf:RDF>
  </metadata>
  <defs
     id="defs10" />
  <sodipodi:namedview
     id="namedview8"
     pagecolor="#ffffff"
     bordercolor="#666666"
     borderopacity="1.0"
     inkscape:pageshadow="2"
     inkscape:pageopacity="0.0"
     inkscape:pagecheckerboard="0"
     showgrid="false"
     inkscape:zoom="55.851554"
     inkscape:cx="11.924467"
     inkscape:cy="4.1091068"
     inkscape:window-width="1920"
     inkscape:window-height="1228"
     inkscape:window-x="-6"
     inkscape:window-y="-6"
     inkscape:window-maximized="1"
     inkscape:current-layer="svg6"
     inkscape:document-rotation="0" />
  <path
     id="rect972"
     style="fill:#7c7d9f;fill-opacity:1;fill-rule:evenodd;stroke-width:1.1704;stroke-linecap:round;stroke-linejoin:round"
     d="m 4.4354584,6.163384 h 7.6181106 c 0.916986,0 1.65521,0.7382239 1.65521,1.6552107 0,0.9169867 -0.738224,1.6552107 -1.65521,1.6552107 H 4.4354584 c -0.9169867,0 -1.6552107,-0.738224 -1.6552107,-1.6552107 0,-0.9169868 0.738224,-1.6552107 1.6552107,-1.6552107 z" />
  <g
     aria-label="DROP FILE"
     id="text1024"
     style="font-size:1.70071px;line-height:8.05;font-family:'Poiret One';-inkscape-font-specification:'Poiret One';stroke-width:1.27553">
    <path
       d="m 4.6182454,7.1323463 h 0.054423 q 0.2857193,0 0.4608924,0.1887788 0.1751732,0.1870782 0.1751732,0.4506882 0,0.2619094 -0.1751732,0.4489875 -0.1734724,0.1870781 -0.4608924,0.1870781 h -0.054423 z m 0.068028,0.051021 h -0.013606 v 1.1717893 h 0.013606 q 0.2483037,0 0.4064697,-0.1717718 0.1598667,-0.1717717 0.1598667,-0.4115718 0,-0.2415008 -0.1598667,-0.4149732 Q 4.9345775,7.1833676 4.6862738,7.1833676 Z"
       style="font-size:1.70071px;fill:#ffffff;stroke-width:1.27553"
       id="path856" />
    <path
       d="m 5.5128173,7.1323463 h 0.07313 q 0.1649689,0 0.2891207,0.1224512 0.1258526,0.1207504 0.1258526,0.2857192 0,0.1632682 -0.1275533,0.2840186 -0.1275532,0.1207504 -0.2738143,0.1207504 h -0.011905 l 0.4387832,0.4625932 h -0.07313 L 5.56724,8.0031099 v 0.404769 H 5.5128173 Z M 5.56724,7.8959651 h 0.030613 q 0.1377575,0 0.2432015,-0.105444 0.1054441,-0.105444 0.1054441,-0.2500044 0,-0.1445603 -0.1088455,-0.251705 Q 5.7288075,7.1816669 5.5893492,7.1816669 H 5.56724 Z"
       style="font-size:1.70071px;fill:#ffffff;stroke-width:1.27553"
       id="path858" />
    <path
       d="m 6.8036556,8.4299881 q -0.26361,0 -0.457491,-0.1989831 -0.1921802,-0.198983 -0.1921802,-0.4642938 0,-0.2670115 0.1955816,-0.4608924 0.1955817,-0.1955817 0.469396,-0.1955817 0.2738143,0 0.4676953,0.1938809 0.1938809,0.193881 0.1938809,0.4625932 0,0.2670115 -0.1921802,0.4659945 Q 7.0961777,8.4299881 6.8291663,8.4299881 Z M 7.4244148,7.7701126 q 0,-0.2517051 -0.1785746,-0.4302796 -0.1768738,-0.1802753 -0.4285789,-0.1802753 -0.2500044,0 -0.4285789,0.1802753 -0.1785746,0.1785745 -0.1785746,0.4302796 0,0.2500044 0.1785746,0.4302796 0.1785745,0.1802753 0.4285789,0.1802753 0.2500044,0 0.4285789,-0.1802753 Q 7.4244148,8.020117 7.4244148,7.7701126 Z"
       style="font-size:1.70071px;fill:#ffffff;stroke-width:1.27553"
       id="path860" />
    <path
       d="m 7.6829209,7.1323463 h 0.056123 q 0.1768739,0 0.3010257,0.1224512 0.1241518,0.1207504 0.1241518,0.2857192 0,0.1649689 -0.1292539,0.2840186 Q 7.9074146,7.943585 7.75265,7.943585 h -0.013606 v 0.4642939 h -0.056123 z m 0.056123,0.7636188 H 7.75265 q 0.1428596,0 0.2483037,-0.105444 0.1071447,-0.105444 0.1071447,-0.2500044 0,-0.1445603 -0.1088454,-0.251705 Q 7.8921082,7.1816669 7.75265,7.1816669 h -0.013606 z"
       style="font-size:1.70071px;fill:#ffffff;stroke-width:1.27553"
       id="path862" />
    <path
       d="m 8.9431432,7.1323463 h 0.4540895 v 0.049321 H 8.9992666 v 0.6904883 h 0.3316385 v 0.049321 H 8.9992666 v 0.4864031 h -0.056123 z"
       style="font-size:1.70071px;fill:#ffffff;stroke-width:1.27553"
       id="path864" />
    <path
       d="m 9.5758051,7.1323463 h 0.056123 v 1.2755326 h -0.056123 z"
       style="font-size:1.70071px;fill:#ffffff;stroke-width:1.27553"
       id="path866" />
    <path
       d="m 9.9516601,7.1323463 v 1.226212 h 0.3945649 v 0.049321 H 9.8955367 V 7.1323463 Z"
       style="font-size:1.70071px;fill:#ffffff;stroke-width:1.27553"
       id="path868" />
    <path
       d="m 10.50779,7.1323463 h 0.457491 v 0.049321 h -0.401367 v 0.6938897 h 0.33504 v 0.049321 h -0.33504 v 0.4336811 h 0.401367 v 0.049321 H 10.50779 Z"
       style="font-size:1.70071px;fill:#ffffff;stroke-width:1.27553"
       id="path870" />
  </g>
  <path
     d="m 11.335692,7.9793864 a 0.04602847,0.04602847 0 0 1 0.04603,0.04603 v 0.2301412 a 0.09205693,0.09205693 0 0 0 0.09206,0.092057 h 1.104684 a 0.09205693,0.09205693 0 0 0 0.09206,-0.092057 v -0.230142 a 0.04603,0.04603 0 0 1 0.09206,0 v 0.230142 A 0.18411385,0.18411385 0 0 1 12.578461,8.439672 H 11.473778 A 0.18411385,0.18411385 0 0 1 11.289664,8.2555579 v -0.230142 a 0.04602847,0.04602847 0 0 1 0.04603,-0.04603 z"
     id="path1054"
     style="fill:#b1155f;fill-opacity:0.996262;stroke-width:0.0920566" />
  <path
     d="m 12.058707,8.1591836 a 0.04602847,0.04602847 0 0 1 -0.06518,0 L 11.71736,7.8830129 a 0.04608816,0.04608816 0 0 1 0.06518,-0.065177 l 0.197554,0.1976465 V 7.2060261 a 0.04603,0.04603 0 0 1 0.09206,0 v 0.8094567 l 0.197554,-0.1976465 a 0.04608816,0.04608816 0 1 1 0.06518,0.065177 z"
     id="path1056"
     style="fill:#b1155f;fill-opacity:0.996262;stroke-width:0.0920566" />
</svg>
