<?xml version="1.0" encoding="UTF-8" standalone="no"?>
<svg
   xmlns:dc="http://purl.org/dc/elements/1.1/"
   xmlns:cc="http://creativecommons.org/ns#"
   xmlns:rdf="http://www.w3.org/1999/02/22-rdf-syntax-ns#"
   xmlns:svg="http://www.w3.org/2000/svg"
   xmlns="http://www.w3.org/2000/svg"
   xmlns:xlink="http://www.w3.org/1999/xlink"
   xmlns:sodipodi="http://sodipodi.sourceforge.net/DTD/sodipodi-0.dtd"
   xmlns:inkscape="http://www.inkscape.org/namespaces/inkscape"
   width="16"
   height="16"
   fill="currentColor"
   class="bi bi-file-earmark-zip-fill"
   viewBox="0 0 16 16"
   version="1.1"
   id="svg6"
   sodipodi:docname="zip-file-lock.svg"
   inkscape:version="1.0.2-2 (e86c870879, 2021-01-15)">
  <metadata
     id="metadata13">
    <rdf:RDF>
      <cc:Work
         rdf:about="">
        <dc:format>image/svg+xml</dc:format>
        <dc:type
           rdf:resource="http://purl.org/dc/dcmitype/StillImage" />
      </cc:Work>
    </rdf:RDF>
  </metadata>
  <defs
     id="defs10">
    <linearGradient
       inkscape:collect="always"
       id="linearGradient842">
      <stop
         style="stop-color:#34d392;stop-opacity:1"
         offset="0"
         id="stop838" />
      <stop
         style="stop-color:#3ebc88;stop-opacity:1"
         offset="1"
         id="stop840" />
    </linearGradient>
    <linearGradient
       inkscape:collect="always"
       xlink:href="#linearGradient842"
       id="linearGradient899"
       x1="0.82684362"
       y1="-2.0339975"
       x2="14.477384"
       y2="17.91679"
       gradientUnits="userSpaceOnUse" />
  </defs>
  <sodipodi:namedview
     id="namedview8"
     pagecolor="#ffffff"
     bordercolor="#666666"
     borderopacity="1.0"
     inkscape:pageshadow="2"
     inkscape:pageopacity="0.0"
     inkscape:pagecheckerboard="0"
     showgrid="false"
     inkscape:zoom="28.675244"
     inkscape:cx="10.573051"
     inkscape:cy="11.977079"
     inkscape:window-width="1920"
     inkscape:window-height="1013"
     inkscape:window-x="-9"
     inkscape:window-y="-9"
     inkscape:window-maximized="1"
     inkscape:current-layer="svg6"
     inkscape:document-rotation="0" />
  <path
     d="M 5.6460362,8.9311905 V 8.0479833 h 0.9415855 v 0.8832072 a 0.94158554,0.94158554 0 0 0 0.028248,0.2288053 L 6.9925035,10.66465 6.1168289,11.248433 5.2411544,10.66465 5.6177886,9.1599958 a 0.94158554,0.94158554 0 0 0 0.028248,-0.2288053 z"
     id="path2"
     style="fill:#f5ca42;fill-opacity:1;stroke-width:0.941586" />
  <path
     d="M 9.2174701,0.04450626 H 4.2336579 A 1.8831711,1.8831711 0 0 0 2.3504868,1.9276773 V 13.226704 a 1.8831711,1.8831711 0 0 0 1.8831711,1.883171 h 7.5326841 a 1.8831711,1.8831711 0 0 0 1.883171,-1.883171 V 4.4765493 A 0.94158554,0.94158554 0 0 0 13.373629,3.8108484 L 9.8831711,0.32039082 A 0.94158554,0.94158554 0 0 0 9.2174701,0.04450626 Z M 9.4123783,3.3400556 V 1.4568845 L 12.237135,4.2816411 H 10.353964 A 0.94158554,0.94158554 0 0 1 9.4123783,3.3400556 Z M 5.6460362,2.8692628 V 1.9276773 H 4.7044506 V 0.98609184 H 6.1168289 V 1.9276773 H 7.0584145 V 2.8692628 H 6.1168289 V 3.8108484 H 7.0584145 V 4.7524339 H 6.1168289 V 5.6940194 H 7.0584145 V 6.635605 H 5.6460362 V 5.6940194 H 4.7044506 V 4.7524339 H 5.6460362 V 3.8108484 H 4.7044506 V 2.8692628 Z m 0,4.2371349 h 0.9415855 a 0.94158554,0.94158554 0 0 1 0.9415855,0.9415856 v 0.8832072 l 0.3766342,1.5055955 a 0.94158554,0.94158554 0 0 1 -0.3916995,1.011263 l -0.8756746,0.583783 a 0.94158554,0.94158554 0 0 1 -1.0442183,0 L 4.7185744,11.448049 A 0.94158554,0.94158554 0 0 1 4.3278164,10.436786 L 4.7044506,8.9311905 V 8.0479833 A 0.94158554,0.94158554 0 0 1 5.6460362,7.1063977 Z"
     id="path4"
     style="fill:url(#linearGradient899);fill-opacity:1;stroke-width:0.941586" />
  <path
     d="m 11.488364,12.092466 v 0.702992 c 0.3528,0.108462 0.653337,0.390043 0.653337,0.799688 v 1.568009 c 0,0.533123 -0.510256,0.849339 -0.980008,0.849339 H 9.2016812 c -0.4697507,0 -0.9800064,-0.316216 -0.9800064,-0.849339 v -1.568009 c 0,-0.409645 0.300534,-0.691233 0.6533354,-0.799688 v -0.702992 a 1.3066772,1.3066772 0 1 1 2.6133538,0 z m -1.9600148,0 v 0.653339 h 1.3066768 v -0.653339 a 0.65333877,0.65333877 0 0 0 -1.3066768,0 z"
     id="path2-4"
     style="fill:#000000;fill-opacity:1;stroke-width:0.653339" />
</svg>
