<?xml version="1.0" encoding="UTF-8" standalone="no"?>
<svg
   xmlns:dc="http://purl.org/dc/elements/1.1/"
   xmlns:cc="http://creativecommons.org/ns#"
   xmlns:rdf="http://www.w3.org/1999/02/22-rdf-syntax-ns#"
   xmlns:svg="http://www.w3.org/2000/svg"
   xmlns="http://www.w3.org/2000/svg"
   xmlns:xlink="http://www.w3.org/1999/xlink"
   xmlns:sodipodi="http://sodipodi.sourceforge.net/DTD/sodipodi-0.dtd"
   xmlns:inkscape="http://www.inkscape.org/namespaces/inkscape"
   width="16"
   height="16"
   fill="currentColor"
   class="bi bi-file-earmark-zip-fill"
   viewBox="0 0 16 16"
   version="1.1"
   id="svg6"
   sodipodi:docname="zip-file.svg"
   inkscape:version="1.0.2-2 (e86c870879, 2021-01-15)">
  <metadata
     id="metadata15">
    <rdf:RDF>
      <cc:Work
         rdf:about="">
        <dc:format>image/svg+xml</dc:format>
        <dc:type
           rdf:resource="http://purl.org/dc/dcmitype/StillImage" />
      </cc:Work>
    </rdf:RDF>
  </metadata>
  <defs
     id="defs10">
    <linearGradient
       inkscape:collect="always"
       id="linearGradient897">
      <stop
         style="stop-color:#34d392;stop-opacity:1"
         offset="0"
         id="stop893" />
      <stop
         style="stop-color:#3ebc88;stop-opacity:1"
         offset="1"
         id="stop895" />
    </linearGradient>
    <linearGradient
       inkscape:collect="always"
       xlink:href="#linearGradient897"
       id="linearGradient899"
       x1="0.3729603"
       y1="-2.4013879"
       x2="14.685247"
       y2="17.706171"
       gradientUnits="userSpaceOnUse" />
  </defs>
  <sodipodi:namedview
     id="namedview8"
     pagecolor="#ffffff"
     bordercolor="#666666"
     borderopacity="1.0"
     inkscape:pageshadow="2"
     inkscape:pageopacity="0.0"
     inkscape:pagecheckerboard="0"
     showgrid="false"
     inkscape:zoom="28.675244"
     inkscape:cx="9.6924587"
     inkscape:cy="10.772601"
     inkscape:window-width="1902"
     inkscape:window-height="1013"
     inkscape:window-x="0"
     inkscape:window-y="0"
     inkscape:window-maximized="0"
     inkscape:current-layer="svg6"
     inkscape:document-rotation="0" />
  <path
     d="M5.5 9.438V8.5h1v.938a1 1 0 0 0 .03.243l.4 1.598-.93.62-.93-.62.4-1.598a1 1 0 0 0 .03-.243z"
     id="path2"
     style="fill:#f5ca42;fill-opacity:1" />
  <path
     d="M9.293 0H4a2 2 0 0 0-2 2v12a2 2 0 0 0 2 2h8a2 2 0 0 0 2-2V4.707A1 1 0 0 0 13.707 4L10 .293A1 1 0 0 0 9.293 0zM9.5 3.5v-2l3 3h-2a1 1 0 0 1-1-1zm-4-.5V2h-1V1H6v1h1v1H6v1h1v1H6v1h1v1H5.5V6h-1V5h1V4h-1V3h1zm0 4.5h1a1 1 0 0 1 1 1v.938l.4 1.599a1 1 0 0 1-.416 1.074l-.93.62a1 1 0 0 1-1.109 0l-.93-.62a1 1 0 0 1-.415-1.074l.4-1.599V8.5a1 1 0 0 1 1-1z"
     id="path4"
     style="fill:url(#linearGradient899);fill-opacity:1" />
</svg>
